<svg width="18" height="28" viewBox="0 0 18 28" fill="none" xmlns="http://www.w3.org/2000/svg">
<style>
    #translate{
        transform-origin: center;
        transform-box: fill-box;
        animation: translateY 2s linear infinite;
    }
    @keyframes translateY {

        0%,
        100% {
            transform: translateY(0px);
        }

        50% {
            transform: translateY(-2px);
        }
    }
</style>
<g id="click 1" clip-path="url(#clip0_418_167)">
<g id="Group 67">
<path id="translate" d="M4.6 16.755V10.955C4.6 9.543 4.59 8.132 4.6 6.72C4.58668 6.27181 4.73331 5.8335 5.01364 5.48354C5.29397 5.13359 5.68971 4.89483 6.13 4.81C6.57913 4.72864 7.04256 4.81037 7.43676 5.04047C7.83095 5.27057 8.13 5.63391 8.28 6.065C8.34094 6.28278 8.36394 6.50942 8.348 6.735C8.348 7.935 8.348 9.135 8.348 10.37C8.5662 10.2818 8.78922 10.206 9.016 10.143C9.41509 10.0352 9.83894 10.0661 10.2182 10.2305C10.5975 10.3948 10.9098 10.6831 11.104 11.048C11.233 11.257 11.309 11.292 11.537 11.187C11.9482 10.9465 12.437 10.8761 12.8993 10.9908C13.3617 11.1055 13.7609 11.3962 14.012 11.801C14.165 12.009 14.251 12.001 14.455 11.901C14.7448 11.7209 15.0784 11.6238 15.4195 11.6203C15.7606 11.6167 16.0962 11.7069 16.3896 11.8809C16.6831 12.0549 16.9231 12.3061 17.0836 12.6071C17.2442 12.9081 17.319 13.2474 17.3 13.588C17.3776 15.6256 17.3526 17.6659 17.225 19.701C16.82 23.772 13.631 27.335 9.382 27.168C8.15601 27.1388 6.95917 26.7882 5.91116 26.1514C4.86314 25.5145 4.00068 24.6137 3.41 23.539C2.324 21.724 1.347 19.839 0.338002 17.982C0.158466 17.7389 0.0388474 17.4569 -0.0111224 17.1588C-0.0610922 16.8608 -0.0400024 16.5551 0.0504316 16.2668C0.140866 15.9784 0.298089 15.7155 0.509314 15.4994C0.720538 15.2832 0.979797 15.12 1.266 15.023C1.55422 14.9202 1.86469 14.8965 2.16519 14.9541C2.4657 15.0118 2.7453 15.1488 2.975 15.351C3.49 15.787 3.996 16.236 4.596 16.757L4.6 16.755ZM5.412 11.976C5.412 13.754 5.412 15.5323 5.412 17.311C5.412 17.553 5.452 17.821 5.184 17.956C4.884 18.105 4.691 17.887 4.496 17.717C3.852 17.1563 3.211 16.5927 2.573 16.026C2.41371 15.8629 2.20617 15.7554 1.98106 15.7194C1.75595 15.6834 1.52523 15.7208 1.323 15.826C1.14151 15.9139 0.993238 16.058 0.900262 16.2369C0.807286 16.4158 0.774577 16.62 0.807002 16.819C0.825227 17.1316 0.918529 17.4351 1.079 17.704C1.883 19.164 2.685 20.6253 3.485 22.088C3.85997 22.8724 4.33711 23.6038 4.904 24.263C5.61783 25.0815 6.5336 25.6988 7.56013 26.0533C8.58667 26.4079 9.68818 26.4874 10.755 26.284C14.055 25.696 16.331 22.575 16.487 19.169C16.573 17.29 16.503 15.404 16.502 13.521C16.5125 13.3649 16.4879 13.2084 16.43 13.063C16.329 12.8286 16.149 12.6372 15.9212 12.522C15.6935 12.4069 15.4326 12.3754 15.184 12.433C14.9338 12.4807 14.7087 12.6157 14.5487 12.8138C14.3886 13.0119 14.3041 13.2604 14.31 13.515C14.296 14.561 14.31 15.607 14.302 16.653C14.302 16.944 14.42 17.353 13.918 17.345C13.416 17.337 13.564 16.912 13.56 16.631C13.546 15.431 13.56 14.225 13.553 13.022C13.553 12.222 13.116 11.712 12.453 11.707C11.79 11.702 11.368 12.207 11.365 13.015C11.365 14.061 11.372 15.107 11.36 16.153C11.355 16.601 11.101 16.809 10.796 16.653C10.55 16.529 10.547 16.302 10.548 16.07C10.548 14.7273 10.548 13.385 10.548 12.043C10.5664 11.8957 10.5533 11.7462 10.5096 11.6043C10.4659 11.4625 10.3925 11.3315 10.2944 11.2202C10.1963 11.1088 10.0756 11.0195 9.94036 10.9583C9.80513 10.8971 9.65844 10.8653 9.51 10.865C9.35724 10.8586 9.2048 10.8838 9.06224 10.939C8.91968 10.9943 8.79007 11.0784 8.68154 11.1861C8.573 11.2938 8.48789 11.4227 8.43153 11.5648C8.37516 11.707 8.34877 11.8592 8.354 12.012C8.337 12.5 8.354 12.988 8.354 13.476C8.354 14.226 8.347 14.976 8.354 15.725C8.36164 15.7766 8.35829 15.8292 8.34416 15.8794C8.33003 15.9296 8.30544 15.9763 8.27201 16.0163C8.23859 16.0564 8.19707 16.0889 8.15019 16.1117C8.10331 16.1346 8.05213 16.1473 8 16.149C7.91199 16.161 7.82281 16.1376 7.75198 16.084C7.68114 16.0304 7.63441 15.951 7.622 15.863C7.60626 15.7246 7.60191 15.5851 7.609 15.446C7.609 12.5693 7.609 9.693 7.609 6.817C7.62837 6.66004 7.61452 6.50076 7.56835 6.3495C7.52217 6.19824 7.44471 6.05838 7.34098 5.939C7.23725 5.81961 7.10958 5.72338 6.96625 5.65653C6.82291 5.58969 6.66713 5.55373 6.509 5.551C6.35303 5.55601 6.19971 5.59272 6.05838 5.65888C5.91705 5.72504 5.79066 5.81927 5.68691 5.93583C5.58316 6.0524 5.50422 6.18886 5.4549 6.33691C5.40557 6.48496 5.38689 6.6415 5.4 6.797C5.449 8.521 5.415 10.248 5.415 11.974" fill="#161615"/>
<path id="Path 383" d="M12.43 5.96C12.4481 7.04276 12.1567 8.10819 11.59 9.031C11.431 9.304 11.246 9.58 10.903 9.366C10.579 9.166 10.763 8.89 10.909 8.641C11.4915 7.72254 11.7606 6.64 11.6758 5.55571C11.5911 4.47141 11.1571 3.44381 10.439 2.627C9.83758 1.85871 9.02008 1.28791 8.09163 0.987986C7.16318 0.688066 6.16623 0.672747 5.22901 0.944C4.29224 1.14183 3.43482 1.61205 2.76443 2.2956C2.09404 2.97916 1.64058 3.84557 1.46101 4.786C1.21539 5.74723 1.26129 6.75981 1.59287 7.69487C1.92444 8.62994 2.5267 9.44523 3.32301 10.037C3.55501 10.229 3.78401 10.402 3.52301 10.713C3.28801 10.994 3.06601 10.838 2.84901 10.659C1.89938 9.96323 1.18775 8.99122 0.811347 7.87578C0.434941 6.76035 0.412121 5.55589 0.746006 4.427C1.00024 3.29517 1.59878 2.26987 2.45936 1.49201C3.31995 0.714156 4.40033 0.221934 5.55201 0.0830004C6.40274 -0.0616387 7.27487 -0.0176074 8.10671 0.211981C8.93856 0.441569 9.7098 0.851107 10.3659 1.41164C11.022 1.97216 11.547 2.66999 11.9037 3.45578C12.2603 4.24156 12.44 5.09611 12.43 5.959" fill="#161615"/>
<path id="Path 384" d="M2.657 6C2.65848 5.42056 2.79112 4.84896 3.04496 4.32808C3.2988 3.80719 3.66727 3.35052 4.12272 2.99231C4.57818 2.63409 5.10882 2.38363 5.67486 2.25969C6.2409 2.13575 6.82765 2.14156 7.39113 2.27667C7.9546 2.41178 8.48018 2.67269 8.92847 3.03984C9.37675 3.40699 9.73611 3.87086 9.9796 4.39667C10.2231 4.92247 10.3444 5.49658 10.3344 6.07594C10.3244 6.6553 10.1834 7.22489 9.922 7.742C9.837 7.907 9.782 8.109 9.551 8.142C9.48321 8.15973 9.41184 8.15837 9.34478 8.13808C9.27772 8.11778 9.21758 8.07934 9.171 8.027C9.11188 7.95112 9.07978 7.85769 9.07978 7.7615C9.07978 7.66532 9.11188 7.57188 9.171 7.496C9.37483 7.13088 9.50029 6.72726 9.53938 6.31093C9.57846 5.89459 9.53031 5.47468 9.398 5.078C9.26993 4.68088 9.06181 4.31423 8.7865 4.00069C8.51118 3.68714 8.17452 3.43336 7.79729 3.25501C7.42007 3.07666 7.01029 2.97753 6.59325 2.96375C6.17622 2.94996 5.76079 3.0218 5.3726 3.17484C4.98442 3.32788 4.63173 3.55887 4.33631 3.85354C4.04089 4.14822 3.809 4.50032 3.65498 4.88812C3.50095 5.27591 3.42806 5.69116 3.44079 6.10823C3.45352 6.52529 3.55161 6.93533 3.729 7.313C3.78 7.423 3.842 7.528 3.897 7.637C3.92591 7.68099 3.9453 7.73055 3.9539 7.78248C3.9625 7.83442 3.96014 7.88758 3.94695 7.93854C3.93376 7.98951 3.91004 8.03714 3.87733 8.07839C3.84461 8.11963 3.80362 8.15356 3.757 8.178C3.525 8.333 3.369 8.204 3.228 8.028C2.85468 7.41867 2.65804 6.71759 2.66 6.003" fill="#161615"/>
</g>
</g>
<defs>
<clipPath id="clip0_418_167">
<rect width="17.342" height="27.172" fill="white"/>
</clipPath>
</defs>
</svg>
