<svg xmlns="http://www.w3.org/2000/svg" width="4.72" height="4.72"><g data-name="Group 110"><path data-name="Path 129" d="M4.72 2.36A2.36 2.36 0 1 1 2.36 0a2.36 2.36 0 0 1 2.36 2.36z" fill="#3d3d3b"/><g fill="#fff"><path data-name="Path 132" d="M2.359 3.87h-1.28a.24.24 0 0 1-.24-.24V1.98a.07.07 0 0 1 0-.06l.32-.25v-.33a.24.24 0 0 1 .19-.24h.57a1.328 1.328 0 0 0 .19-.14.669.669 0 0 1 .12-.06.31.31 0 0 1 .19 0l.12.09.11.09h.54a.25.25 0 0 1 .25.19v.41l.33.25a.09.09 0 0 1 0 .07v1.63a.24.24 0 0 1-.25.25zm0-2.68h-.92a.12.12 0 0 0-.12.12l1.16.87.92.7a.15.15 0 0 0 .21 0l.92-.7v-.89a.12.12 0 0 0-.13-.13zm1.29 2.56-.17-.13-.83-.62-.12.08a.23.23 0 0 1-.27 0 .5.5 0 0 1-.12-.08l-1 .77zm.11-1.64-1 .76.89.68.11.08zm-2.81 0v1.55l1-.75-.89-.68zm2.56 0 .2-.14-.19-.15zm-2.31 0v-.32l-.2.15.15.11zm1.32-1.07a.31.31 0 0 0-.11-.09.11.11 0 0 0-.08 0 .49.49 0 0 0-.15.1z"/><path data-name="Path 133" d="M1.769 1.99a.57.57 0 0 1 .5-.58.64.64 0 0 1 .68.48.38.38 0 0 1 0 .21.21.21 0 0 1-.12.08.2.2 0 0 1-.18 0 .282.282 0 1 1 .07-.23.16.16 0 0 0 0 .09h.1a.17.17 0 0 0 0-.07.47.47 0 0 0-.35-.37.42.42 0 1 0-.14.82.38.38 0 0 0 .29-.07.08.08 0 0 1 .13 0 .09.09 0 0 1 0 .09.62.62 0 0 1-.75-.07.6.6 0 0 1-.23-.38zm.72 0a.134.134 0 1 1 0-.01z"/></g></g></svg>