<svg xmlns="http://www.w3.org/2000/svg" width="4.72" height="4.72"><g data-name="Group 107"><path data-name="Path 130" d="M4.721 2.35A2.35 2.35 0 1 1 4.029.685a2.36 2.36 0 0 1 .692 1.665z" fill="#3d3d3b"/><path data-name="Path 131" d="M1.28 3.49H.77c-.08 0-.11 0-.11-.1V2.27a.61.61 0 0 1 .61-.61h.48V.92c0-.24 0-.15.14-.15h.62a.11.11 0 0 1 0 .12l-.1.12v.05l.11.13a.08.08 0 0 1 0 .1h-.56a.049.049 0 0 0-.05.05v.21h1.34a.56.56 0 0 1 .41.39H4a.1.1 0 0 1 .08.11c-.05.35-.1.7-.16 1.05 0 .07 0 .09-.11.08h-.08c-.02 0 0 0 0 .07s0 .06-.09.06H1.97m.67-1.7h-.65v.28a.05.05 0 0 0 0 .06.348.348 0 0 1-.18.67.35.35 0 0 1-.28-.31.33.33 0 0 1 .23-.36.05.05 0 0 0 0-.06 1.219 1.219 0 0 1 0-.27h-.48a.45.45 0 0 0-.45.65v1h1.45a.059.059 0 0 0 .06-.06v-1a.876.876 0 0 1 0-.16.69.69 0 0 1 .24-.26zm.9 1.55-.71.11c-.12 0-.12 0-.12-.13s0 0 .05 0l1 .14h.06c.01 0 .05-.35.07-.53a2.54 2.54 0 0 0 0-.29l-.75.34a.11.11 0 0 1-.13 0l-.27-.25a1.338 1.338 0 0 1 0-.2h.06l.29.27h.06l.58-.27-.38-.06-.55-.08s.14-.12.19-.12l.32.06h.25a.36.36 0 0 0-.25-.23.74.74 0 0 0-.26 0 .47.47 0 0 0-.46.45v.9h.92zm-1.82.15h-.13m.49-1a.2.2 0 0 0-.39-.01.19.19 0 0 0 .19.2.21.21 0 0 0 .14-.01zM2.34.69h-.35v.23h.35c-.19.14-.18.04-.06-.05z" fill="#fff"/></g></svg>