<svg xmlns="http://www.w3.org/2000/svg" width="101.215" height="41.62"><g data-name="Group 105"><path data-name="Path 147" d="M18.983 23.271c-.22.44-.87.06-.65-.38a9.64 9.64 0 0 1 3.42-3.83c.41-.26.79.39.38.65a8.87 8.87 0 0 0-3.15 3.56z" fill="#010101"/><path data-name="Path 148" d="M18.983 23.271a8.87 8.87 0 0 1 3.15-3.56c.41-.26 0-.91-.38-.65a9.64 9.64 0 0 0-3.42 3.84c-.22.44.43.82.65.38z" fill="#010101"/><path data-name="Path 149" d="M25.453 16.291a10.82 10.82 0 0 0-9.41 9.53c-.05.48.7.48.76 0a10.05 10.05 0 0 1 8.65-8.78c.48-.06.48-.81 0-.75z" fill="#010101"/><path data-name="Path 150" d="M25.453 16.291a10.82 10.82 0 0 0-9.41 9.53c-.05.48.7.48.76 0a10.05 10.05 0 0 1 8.65-8.78c.48-.06.48-.81 0-.75z" fill="#010101"/><path data-name="Path 151" d="M27.363 14.811a12.12 12.12 0 0 0-12.78 12.8c0 .48.78.49.76 0a11.37 11.37 0 0 1 12-12.05.375.375 0 0 0 0-.75z" fill="#010101"/><path data-name="Path 152" d="M27.363 14.811a12.12 12.12 0 0 0-12.78 12.8c0 .48.78.49.76 0a11.37 11.37 0 0 1 12-12.05.375.375 0 0 0 0-.75z" fill="#010101"/><path data-name="Path 153" d="M29.073 13.571a13.55 13.55 0 0 0-15.73 15.68c.08.48.8.28.73-.2a12.79 12.79 0 0 1 14.8-14.75c.47.08.68-.65.2-.73z" fill="#010101"/><path data-name="Path 154" d="M29.073 13.571a13.55 13.55 0 0 0-15.73 15.68c.08.48.8.28.73-.2a12.79 12.79 0 0 1 14.8-14.75c.47.08.68-.65.2-.73z" fill="#010101"/><path data-name="Path 155" d="M33.313 38.741a12.331 12.331 0 0 0 1.15-.72c.4-.28 0-.93-.38-.65a12.329 12.329 0 0 1-1.15.72.38.38 0 0 0 .38.65z" fill="#010101"/><path data-name="Path 156" d="M33.313 38.741a12.331 12.331 0 0 0 1.15-.72c.4-.28 0-.93-.38-.65a12.329 12.329 0 0 1-1.15.72.38.38 0 0 0 .38.65z" fill="#010101"/><path data-name="Path 157" d="M39.393 28.551a13.61 13.61 0 0 1-1.22 4c-.21.43.44.81.65.38a13.89 13.89 0 0 0 1.29-4.21c.07-.48-.65-.68-.72-.2z" fill="#010101"/><g data-name="Group 104"><path data-name="Path 158" d="M39.393 28.551a13.61 13.61 0 0 1-1.22 4c-.21.43.44.81.65.38a13.89 13.89 0 0 0 1.29-4.21c.07-.48-.65-.68-.72-.2z" fill="#010101"/><path data-name="Path 159" d="m33.673 15.301-.55-.32a.38.38 0 0 0-.39.65l.56.32a.38.38 0 1 0 .38-.65z" fill="#010101"/><path data-name="Path 160" d="m33.673 15.301-.55-.32a.38.38 0 0 0-.39.65l.56.32a.38.38 0 1 0 .38-.65z" fill="#010101"/><path data-name="Path 161" d="M40.913 26.901a13.84 13.84 0 0 1-.37 3.27c-.11.47.61.68.72.2a14.44 14.44 0 0 0 .4-3.47.38.38 0 0 0-.75 0z" fill="#010101"/><g data-name="Group 103"><path data-name="Path 162" d="M40.913 26.901a13.84 13.84 0 0 1-.37 3.27c-.11.47.61.68.72.2a14.44 14.44 0 0 0 .4-3.47.38.38 0 0 0-.75 0z" fill="#010101"/><path data-name="Path 163" d="M35.053 14.491c-.36-.24-.74-.47-1.12-.69s-.81.42-.38.65.75.45 1.12.69.78-.38.38-.65z" fill="#010101"/><path data-name="Path 164" d="M35.053 14.491c-.36-.24-.74-.47-1.12-.69s-.81.42-.38.65.75.45 1.12.69.78-.38.38-.65z" fill="#010101"/><path data-name="Path 165" d="M40.753 24.721c0 .23.06.45.08.68a.38.38 0 1 0 .76 0 3.222 3.222 0 0 0-.12-.87.372.372 0 1 0-.72.19z" fill="#010101"/><g data-name="Group 102"><path data-name="Path 166" d="M40.753 24.721c0 .23.06.45.08.68a.38.38 0 1 0 .76 0 3.222 3.222 0 0 0-.12-.87.372.372 0 1 0-.72.19z" fill="#010101"/><path data-name="Path 167" d="M34.303 39.811a15.31 15.31 0 0 0 5.35-5.38.38.38 0 0 0-.65-.38 14.62 14.62 0 0 1-5.08 5.11c-.41.25 0 .9.38.65z" fill="#010101"/><path data-name="Path 168" d="M34.303 39.811a15.31 15.31 0 0 0 5.35-5.38.38.38 0 0 0-.65-.38 14.62 14.62 0 0 1-5.08 5.11c-.41.25 0 .9.38.65z" fill="#010101"/><g data-name="Group 101"><path data-name="Path 169" d="M30.533 12.441a15 15 0 0 0-18.34 18.23.374.374 0 1 0 .72-.2 14.22 14.22 0 0 1 17.42-17.3.38.38 0 0 0 .2-.73z" fill="#010101"/><path data-name="Path 170" d="M30.533 12.441a15 15 0 0 0-18.34 18.23.374.374 0 1 0 .72-.2 14.22 14.22 0 0 1 17.42-17.3.38.38 0 0 0 .2-.73z" fill="#010101"/><path data-name="Path 171" d="M35.353 40.841a17 17 0 0 0 4.9-4.7c.27-.39-.38-.77-.66-.38a15.86 15.86 0 0 1-4.62 4.43c-.41.26 0 .91.38.65z" fill="#010101"/><path data-name="Path 172" d="M35.353 40.841a17 17 0 0 0 4.9-4.7c.27-.39-.38-.77-.66-.38a15.86 15.86 0 0 1-4.62 4.43c-.41.26 0 .91.38.65z" fill="#010101"/><g data-name="Group 100"><path data-name="Path 173" d="M38.583 15.621a17.43 17.43 0 0 0-3.6-2.86.38.38 0 0 0-.38.65 16.63 16.63 0 0 1 3.45 2.75c.33.35.87-.19.53-.54z" fill="#010101"/><path data-name="Path 174" d="M38.583 15.621a17.43 17.43 0 0 0-3.6-2.86.38.38 0 0 0-.38.65 16.63 16.63 0 0 1 3.45 2.75c.33.35.87-.19.53-.54z" fill="#010101"/><path data-name="Path 175" d="M42.863 29.621a17.63 17.63 0 0 0 0-5.23c-.07-.48-.79-.28-.72.2a16.29 16.29 0 0 1 0 4.83c-.08.47.65.67.72.2z" fill="#010101"/><path data-name="Path 176" d="M42.863 29.621a17.63 17.63 0 0 0 0-5.23c-.07-.48-.79-.28-.72.2a16.29 16.29 0 0 1 0 4.83c-.08.47.65.67.72.2z" fill="#010101"/><path data-name="Path 177" d="M31.923 11.371a16.4 16.4 0 0 0-20.82 20.64c.15.46.87.26.72-.2a15.67 15.67 0 0 1 19.9-19.72c.46.16.66-.57.2-.72z" fill="#010101"/><g data-name="Group 99"><path data-name="Path 178" d="M31.923 11.371a16.4 16.4 0 0 0-20.82 20.64c.15.46.87.26.72-.2a15.67 15.67 0 0 1 19.9-19.72c.46.16.66-.57.2-.72z" fill="#010101"/><path data-name="Path 179" d="M36.923 41.511a18.49 18.49 0 0 0 4.69-4.85c.27-.41-.38-.79-.65-.38a17.66 17.66 0 0 1-4.42 4.62c-.39.28 0 .93.38.65z" fill="#010101"/><path data-name="Path 180" d="M36.923 41.511a18.49 18.49 0 0 0 4.69-4.85c.27-.41-.38-.79-.65-.38a17.66 17.66 0 0 1-4.42 4.62c-.39.28 0 .93.38.65z" fill="#010101"/><path data-name="Path 181" d="M33.193 10.401a17.76 17.76 0 0 0-23.08 22.88c.14.38.75.21.6-.17a17.13 17.13 0 0 1 22.35-22.1c.38.14.54-.46.17-.61z" fill="#00a23a"/><path data-name="Path 182" d="M33.193 10.401a17.76 17.76 0 0 0-23.08 22.88c.14.38.75.21.6-.17a17.13 17.13 0 0 1 22.35-22.1c.38.14.54-.46.17-.61z" fill="#00a23a"/><path data-name="Path 183" d="M43.243 31.131a20.162 20.162 0 0 1-.69 2.12c-.18.45.55.64.72.2a18.07 18.07 0 0 0 .69-2.12.374.374 0 1 0-.72-.2z" fill="#010101"/><path data-name="Path 184" d="M43.243 31.131a20.162 20.162 0 0 1-.69 2.12c-.18.45.55.64.72.2a18.07 18.07 0 0 0 .69-2.12.374.374 0 1 0-.72-.2z" fill="#010101"/><path data-name="Path 185" d="M44.433 28.631a18.89 18.89 0 0 0-.22-5c-.08-.47-.81-.27-.72.2a18.22 18.22 0 0 1 .19 4.78c-.05.48.7.47.75 0z" fill="#010101"/><path data-name="Path 186" d="M44.433 28.631a18.89 18.89 0 0 0-.22-5c-.08-.47-.81-.27-.72.2a18.22 18.22 0 0 1 .19 4.78c-.05.48.7.47.75 0z" fill="#010101"/><path data-name="Path 187" d="M36.873 13.211a17.36 17.36 0 0 1 2.7 2.51c.33.36.86-.17.54-.53a18.75 18.75 0 0 0-2.86-2.63c-.39-.29-.76.37-.38.65z" fill="#010101"/><path data-name="Path 188" d="M36.873 13.211a17.36 17.36 0 0 1 2.7 2.51c.33.36.86-.17.54-.53a18.75 18.75 0 0 0-2.86-2.63c-.39-.29-.76.37-.38.65z" fill="#010101"/><g data-name="Group 98"><path data-name="Path 189" d="M44.193 32.951a19.1 19.1 0 0 1-5 7.62c-.36.32.17.85.53.53a19.66 19.66 0 0 0 5.2-8c.16-.46-.57-.65-.72-.2z" fill="#010101"/><path data-name="Path 190" d="M44.193 32.951a19.1 19.1 0 0 1-5 7.62c-.36.32.17.85.53.53a19.66 19.66 0 0 0 5.2-8c.16-.46-.57-.65-.72-.2z" fill="#010101"/><path data-name="Path 191" d="m40.303 13.311-.31-.3a.38.38 0 0 0-.53 0 .39.39 0 0 0 0 .53l.31.3a.375.375 0 1 0 .53-.53z" fill="#010101"/><path data-name="Path 192" d="m40.303 13.311-.31-.3a.38.38 0 0 0-.53 0 .39.39 0 0 0 0 .53l.31.3a.375.375 0 1 0 .53-.53z" fill="#010101"/><path data-name="Path 193" d="M34.593 9.431a19.17 19.17 0 0 0-26.85 14.47c-.06.4.54.57.6.17a18.57 18.57 0 0 1 25.94-14.09c.36.16.68-.38.31-.55z" fill="#e00814"/><g data-name="Group 97"><path data-name="Path 194" d="M34.593 9.431a19.17 19.17 0 0 0-26.85 14.47c-.06.4.54.57.6.17a18.57 18.57 0 0 1 25.94-14.09c.36.16.68-.38.31-.55z" fill="#e00814"/><path data-name="Path 195" d="M44.973 24.101a1.286 1.286 0 0 0 .07.51.39.39 0 0 0 .38.37c.18 0 .4-.16.37-.37s-.06-.48-.09-.71a.378.378 0 1 0-.73.2z" fill="#010101"/><path data-name="Path 196" d="M44.973 24.101a1.286 1.286 0 0 0 .07.51.39.39 0 0 0 .38.37c.18 0 .4-.16.37-.37s-.06-.48-.09-.71a.378.378 0 1 0-.73.2z" fill="#010101"/><path data-name="Path 197" d="M9.713 34.261a18.54 18.54 0 0 1-1.42-5.48c-.05-.48-.8-.48-.75 0a20.1 20.1 0 0 0 1.52 5.86c.19.45.84.06.65-.38z" fill="#010101"/><path data-name="Path 198" d="M9.713 34.261a18.54 18.54 0 0 1-1.42-5.48c-.05-.48-.8-.48-.75 0a20.1 20.1 0 0 0 1.52 5.86c.19.45.84.06.65-.38z" fill="#010101"/><path data-name="Path 199" d="M42.483 40.251a21.53 21.53 0 0 0 2.94-4.6c.21-.43-.44-.81-.65-.37a20.54 20.54 0 0 1-2.82 4.43c-.31.37.22.91.53.54z" fill="#010101"/><g data-name="Group 96" fill="#010101"><g data-name="Group 95"><path data-name="Path 200" d="M42.483 40.251a21.53 21.53 0 0 0 2.94-4.6c.21-.43-.44-.81-.65-.37a20.54 20.54 0 0 1-2.82 4.43c-.31.37.22.91.53.54z"/><path data-name="Path 201" d="m46.243 23.091.06.31a.39.39 0 0 0 .17.23.37.37 0 0 0 .29 0 .39.39 0 0 0 .26-.47 1.7 1.7 0 0 0-.06-.31.37.37 0 0 0-.46-.26.38.38 0 0 0-.26.46z"/><path data-name="Path 202" d="m46.243 23.091.06.31a.39.39 0 0 0 .17.23.37.37 0 0 0 .29 0 .39.39 0 0 0 .26-.47 1.7 1.7 0 0 0-.06-.31.37.37 0 0 0-.46-.26.38.38 0 0 0-.26.46z"/><path data-name="Path 203" d="M36.073 8.491a20.91 20.91 0 0 0-14.88-1.51 20.67 20.67 0 0 0-10.61 7 21.3 21.3 0 0 0-3.52 6.4c-.15.46.58.66.73.2a19.94 19.94 0 0 1 27.9-11.44c.43.22.81-.43.38-.65z"/><path data-name="Path 204" d="M36.073 8.491a20.91 20.91 0 0 0-14.88-1.51 20.67 20.67 0 0 0-10.61 7 21.3 21.3 0 0 0-3.52 6.4c-.15.46.58.66.73.2a19.94 19.94 0 0 1 27.9-11.44c.43.22.81-.43.38-.65z"/><path data-name="Path 205" d="M6.333 30.491a21.14 21.14 0 0 0 1.73 5.41c.21.44.86.06.65-.37a20.34 20.34 0 0 1-1.65-5.22c-.09-.47-.81-.27-.73.21z"/><path data-name="Path 206" d="M6.333 30.491a21.14 21.14 0 0 0 1.73 5.41c.21.44.86.06.65-.37a20.34 20.34 0 0 1-1.65-5.22c-.09-.47-.81-.27-.73.21z"/><path data-name="Path 207" d="M5.193 32.001a23.27 23.27 0 0 0 1.89 5.09c.22.43.87.05.65-.38a22.29 22.29 0 0 1-1.81-4.91c-.11-.48-.84-.28-.73.2z"/><path data-name="Path 208" d="M5.193 32.001a23.27 23.27 0 0 0 1.89 5.09c.22.43.87.05.65-.38a22.29 22.29 0 0 1-1.81-4.91c-.11-.48-.84-.28-.73.2z"/><path data-name="Path 209" d="M38.013 7.901a22.33 22.33 0 0 0-15-2.81 22.06 22.06 0 0 0-16.19 12.17c-.22.43.43.81.65.38a21.32 21.32 0 0 1 30.16-9 .38.38 0 0 0 .38-.65z"/><path data-name="Path 210" d="M38.013 7.901a22.33 22.33 0 0 0-15-2.81 22.06 22.06 0 0 0-16.19 12.17c-.22.43.43.81.65.38a21.32 21.32 0 0 1 30.16-9 .38.38 0 0 0 .38-.65z"/><path data-name="Path 211" d="M4.093 33.441a24.63 24.63 0 0 0 2 4.81.38.38 0 0 0 .65-.38 23.39 23.39 0 0 1-1.91-4.63.38.38 0 0 0-.73.2z"/><path data-name="Path 212" d="M4.093 33.441a24.63 24.63 0 0 0 2 4.81.38.38 0 0 0 .65-.38 23.39 23.39 0 0 1-1.91-4.63.38.38 0 0 0-.73.2z"/></g><path data-name="Path 213" d="M36.723 5.651a23.55 23.55 0 0 0-29.53 8.06c-.28.4.38.78.65.38a22.78 22.78 0 0 1 28.46-7.8c.44.21.82-.44.38-.64z"/><path data-name="Path 214" d="M36.723 5.651a23.55 23.55 0 0 0-29.53 8.06c-.28.4.38.78.65.38a22.78 22.78 0 0 1 28.46-7.8c.44.21.82-.44.38-.64z"/><path data-name="Path 215" d="M3.033 34.831a26.3 26.3 0 0 0 1.88 4.24c.23.43.88 0 .65-.38a25 25 0 0 1-1.8-4.06c-.16-.45-.88-.26-.73.2z"/><path data-name="Path 216" d="M3.033 34.831a26.3 26.3 0 0 0 1.88 4.24c.23.43.88 0 .65-.38a25 25 0 0 1-1.8-4.06c-.16-.45-.88-.26-.73.2z"/><path data-name="Path 217" d="M33.993 3.061a24.93 24.93 0 0 0-24.8 6.11c-.35.34.19.87.53.53a24.43 24.43 0 0 1 24.07-5.91c.46.14.66-.59.2-.73z"/><path data-name="Path 218" d="M33.993 3.061a24.93 24.93 0 0 0-24.8 6.11c-.35.34.19.87.53.53a24.43 24.43 0 0 1 24.07-5.91c.46.14.66-.59.2-.73z"/><path data-name="Path 219" d="M13.523 4.951a25.9 25.9 0 0 1 12.77-3.64.38.38 0 0 0 0-.75 26.62 26.62 0 0 0-13.1 3.74.38.38 0 0 0 .38.65z"/><path data-name="Path 220" d="M13.523 4.951a25.9 25.9 0 0 1 12.77-3.64.38.38 0 0 0 0-.75 26.62 26.62 0 0 0-13.1 3.74.38.38 0 0 0 .38.65z"/><path data-name="Path 221" d="M2.013 36.181a27.15 27.15 0 0 0 1.52 3.34c.23.43.88.05.65-.38a28 28 0 0 1-1.45-3.15c-.17-.45-.9-.26-.72.19z"/><path data-name="Path 222" d="M2.013 36.181a27.15 27.15 0 0 0 1.52 3.34c.23.43.88.05.65-.38a28 28 0 0 1-1.45-3.15c-.17-.45-.9-.26-.72.19z"/><path data-name="Path 223" d="M1.003 37.511c.31.75.65 1.49 1 2.21.23.43.87 0 .65-.38-.34-.66-.66-1.34-1-2-.18-.44-.91-.25-.72.2z"/><g data-name="Group 94"><g data-name="Group 93"><path data-name="Path 224" d="M1.003 37.511c.31.75.65 1.49 1 2.21.23.43.87 0 .65-.38-.34-.66-.66-1.34-1-2-.18-.44-.91-.25-.72.2z"/><path data-name="Path 225" d="M.053 38.901c.11.24.21.48.33.72a.38.38 0 0 0 .65-.38l-.33-.72a.4.4 0 0 0-.52-.13.37.37 0 0 0-.13.51z"/><path data-name="Path 226" d="M.053 38.901c.11.24.21.48.33.72a.38.38 0 0 0 .65-.38l-.33-.72a.4.4 0 0 0-.52-.13.37.37 0 0 0-.13.51z"/><path data-name="Path 227" d="M99.933 3.151h-6.36c-.56 0-.63.12-.63.71v3.76c0 .65.12.77.77.78h5.66v7.3h-9.4v-7.59c0-.69-.11-.79-.79-.79h-12.23c-.06 0-.4.36-.39.54s.24.37.42.5.25 0 .39 0h11.5v7.28h-15.68v-5.53c0-.46-.2-.69-.56-.67s-.53.28-.53.66v5.58h-3.1v-5.2a1.39 1.39 0 0 0-.06-.65.73.73 0 0 0-.5-.37c-.18 0-.38.21-.51.37s0 .29 0 .43v5.42h-3.1v-5.57c0-.48-.17-.69-.54-.68s-.53.21-.53.7v5.77c0 .86.06.92.93.92h35.2a.53.53 0 0 0 .58-.61V3.741c0-.38-.15-.59-.54-.59zm-.57 4.14h-5.32v-3h5.32z"/><path data-name="Path 228" d="M64.053 19.901h-11.65V4.061a2.671 2.671 0 0 0 0-.4.5.5 0 0 0-.56-.49c-.43 0-.57.19-.57.8v16a2.68 2.68 0 0 0 0 .4c.08.55.22.66.78.67h12c.48 0 .75-.22.74-.58s-.3-.56-.74-.56z"/><path data-name="Path 229" d="M77.063 4.231h12.47a1.015 1.015 0 0 0 .43-.52c.07-.4-.13-.55-.69-.55h-12.2a.47.47 0 0 0-.54.5.52.52 0 0 0 .53.57z"/><path data-name="Path 230" d="M96.773 1.581a.76.76 0 0 0 .8-.76.781.781 0 0 0-1.56-.08.79.79 0 0 0 .76.84z"/><path data-name="Path 231" d="M52.393 39.421v-13.21l-.72.72h13.21a.72.72 0 0 0 .72-.72.74.74 0 0 0-.72-.72h-13.21a.73.73 0 0 0-.72.72v13.21a.72.72 0 1 0 1.44 0z"/><path data-name="Path 232" d="M52.393 39.421v-13.21l-.72.72h13.21a.72.72 0 0 0 .72-.72.74.74 0 0 0-.72-.72h-13.21a.73.73 0 0 0-.72.72v13.21a.72.72 0 1 0 1.44 0z"/><path data-name="Path 233" d="M81.523 38.701h-13.21a.72.72 0 1 0 0 1.44h13.21a.72.72 0 0 0 0-1.44z"/><path data-name="Path 234" d="M81.523 38.701h-13.21a.72.72 0 1 0 0 1.44h13.21a.72.72 0 0 0 0-1.44z"/><path data-name="Path 235" d="M68.313 26.901h13.21a.72.72 0 0 0 0-1.44h-13.21a.72.72 0 1 0 0 1.44z"/><path data-name="Path 236" d="M68.313 26.901h13.21a.72.72 0 0 0 0-1.44h-13.21a.72.72 0 1 0 0 1.44z"/><path data-name="Path 237" d="M58.283 33.541h23.19a.72.72 0 0 0 0-1.44h-23.16a.72.72 0 1 0 0 1.44z"/><path data-name="Path 238" d="M58.283 33.541h23.19a.72.72 0 0 0 0-1.44h-23.16a.72.72 0 1 0 0 1.44z"/><path data-name="Path 239" d="M87.263 26.701h1.31l-.51-.21 4.64 4.63.65.66a.72.72 0 0 0 1 0l4.64-4.64.66-.65-.51.21h1.31a.72.72 0 0 0 .72-.72.74.74 0 0 0-.72-.72h-1a1.15 1.15 0 0 0-.89.24c-.33.3-.64.63-1 .95l-3.31 3.45-.9.89h1l-2.35-2.36-2.81-2.88-.08-.08a.91.91 0 0 0-.71-.21h-1.14a.72.72 0 0 0-.72.72.74.74 0 0 0 .72.72z"/><path data-name="Path 240" d="M87.263 26.701h1.31l-.51-.21 4.64 4.63.65.66a.72.72 0 0 0 1 0l4.64-4.64.66-.65-.51.21h1.31a.72.72 0 0 0 .72-.72.74.74 0 0 0-.72-.72h-1a1.15 1.15 0 0 0-.89.24c-.33.3-.64.63-1 .95l-3.31 3.45-.9.89h1l-2.35-2.36-2.81-2.88-.08-.08a.91.91 0 0 0-.71-.21h-1.14a.72.72 0 0 0-.72.72.74.74 0 0 0 .72.72z"/></g><path data-name="Path 241" d="m87.773 40.171 2.23-2.27 3.56-3.56.81-.81h-1l2.24 2.24 3.58 3.58c.28.27.55.54.82.82a.74.74 0 0 0 1 0 .72.72 0 0 0 0-1l-2.27-2.27-3.55-3.54c-.27-.28-.55-.55-.82-.82a.74.74 0 0 0-1 0c-.74.75-1.49 1.49-2.23 2.23l-3.56 3.56-.81.82a.72.72 0 0 0 0 1 .74.74 0 0 0 1 0z"/><path data-name="Path 242" d="m87.773 40.171 2.23-2.27 3.56-3.56.81-.81h-1l2.24 2.24 3.58 3.58c.28.27.55.54.82.82a.74.74 0 0 0 1 0 .72.72 0 0 0 0-1l-2.27-2.27-3.55-3.54c-.27-.28-.55-.55-.82-.82a.74.74 0 0 0-1 0c-.74.75-1.49 1.49-2.23 2.23l-3.56 3.56-.81.82a.72.72 0 0 0 0 1 .74.74 0 0 0 1 0z"/></g></g></g></g></g></g></g></g></g></g></g></svg>