<svg width="378" height="330" viewBox="0 0 378 330" fill="none" xmlns="http://www.w3.org/2000/svg">
<style>
    #cliping{
        animation: sideClip 4s infinite alternate;
    }

    @keyframes sideClip {
        0% {
            clip-path: polygon(0 0, 100% 0, 0 0, 0 100%);
        }
        50% {
            clip-path: polygon(0 0, 100% 0, 0 100%, 0 100%);
            transform: scale(0.7);
            animation-timing-function: ease-in;
        }
        
        100%{
            clip-path: polygon(0 0, 100% 0, 100% 100%, 0 100%);
            transform: scale(1);
            animation-timing-function: ease-out;
        }
    }
</style>
<g id="pattern 1" clip-path="url(#clip0_417_2)">
<g id="cliping" opacity="0.206">
<path id="Path 1" opacity="0.206" d="M152.531 182.497C150.795 185.99 145.607 182.936 147.301 179.443C153.502 166.881 163.013 156.249 174.809 148.692C178.093 146.6 181.085 151.809 177.863 153.901C166.969 160.944 158.209 170.833 152.531 182.497V182.497Z" fill="white"/>
<path id="Path 2" opacity="0.206" d="M152.531 182.496C158.209 170.831 166.969 160.94 177.864 153.896C181.106 151.804 178.094 146.553 174.81 148.687C163.011 156.25 153.5 166.889 147.302 179.459C145.608 182.952 150.795 186.007 152.532 182.513L152.531 182.496Z" fill="white"/>
<path id="Path 3" opacity="0.206" d="M204.539 126.408C185.184 128.859 167.213 137.741 153.511 151.629C139.809 165.517 131.17 183.606 128.98 202.992C128.541 206.841 134.586 206.82 135.026 202.992C137.143 185.188 145.123 168.595 157.708 155.825C170.293 143.055 186.768 134.835 204.539 132.458C208.347 131.977 208.388 125.931 204.539 126.408Z" fill="white"/>
<path id="Path 4" opacity="0.206" d="M204.539 126.408C185.184 128.859 167.213 137.741 153.511 151.629C139.809 165.517 131.17 183.606 128.98 202.992C128.541 206.841 134.586 206.82 135.026 202.992C137.143 185.188 145.123 168.595 157.708 155.825C170.293 143.055 186.768 134.835 204.539 132.458C208.347 131.977 208.388 125.931 204.539 126.408Z" fill="white"/>
<path id="Path 5" opacity="0.206" d="M219.874 114.531C206.177 113.768 192.473 115.908 179.661 120.811C166.849 125.713 155.217 133.267 145.527 142.978C135.838 152.689 128.31 164.338 123.436 177.161C118.562 189.984 116.453 203.693 117.246 217.388C117.455 221.258 123.522 221.279 123.292 217.388C122.5 204.488 124.454 191.567 129.025 179.478C133.595 167.389 140.678 156.407 149.806 147.257C158.934 138.107 169.899 130.998 181.977 126.399C194.056 121.8 206.972 119.815 219.874 120.576C223.785 120.764 223.764 114.719 219.874 114.531Z" fill="white"/>
<path id="Path 6" opacity="0.206" d="M219.874 114.531C206.177 113.768 192.473 115.908 179.661 120.811C166.849 125.713 155.217 133.267 145.527 142.978C135.838 152.689 128.31 164.338 123.436 177.161C118.562 189.984 116.453 203.693 117.246 217.388C117.455 221.258 123.522 221.279 123.292 217.388C122.5 204.488 124.454 191.567 129.025 179.478C133.595 167.389 140.678 156.407 149.806 147.257C158.934 138.107 169.899 130.998 181.977 126.399C194.056 121.8 206.972 119.815 219.874 120.576C223.785 120.764 223.764 114.719 219.874 114.531Z" fill="white"/>
<path id="Path 7" opacity="0.206" d="M233.617 104.636C207.099 99.9045 179.769 105.17 156.908 119.416C134.047 133.661 117.278 155.875 109.841 181.765C105.389 197.657 104.51 214.338 107.268 230.61C107.896 234.438 113.732 232.81 113.104 228.999C104.862 178.313 135.864 127.689 185.441 113.151C200.562 108.757 216.479 107.835 232.006 110.451C235.813 111.079 237.445 105.265 233.617 104.636Z" fill="white"/>
<path id="Path 8" opacity="0.206" d="M233.617 104.636C207.099 99.9045 179.769 105.17 156.908 119.416C134.047 133.661 117.278 155.875 109.841 181.765C105.389 197.657 104.51 214.338 107.268 230.61C107.896 234.438 113.732 232.81 113.104 228.999C104.862 178.313 135.864 127.689 185.441 113.151C200.562 108.757 216.479 107.835 232.006 110.451C235.813 111.079 237.445 105.265 233.617 104.636Z" fill="white"/>
<path id="Path 9" opacity="0.206" d="M267.651 306.774C270.83 304.974 273.919 303.029 276.918 300.938C280.077 298.721 277.064 293.47 273.864 295.708C270.877 297.812 267.784 299.759 264.597 301.544C263.951 301.972 263.493 302.631 263.317 303.385C263.142 304.14 263.261 304.933 263.652 305.602C264.043 306.271 264.675 306.766 265.419 306.984C266.162 307.201 266.961 307.126 267.651 306.774V306.774Z" fill="white"/>
<path id="Path 10" opacity="0.206" d="M267.651 306.774C270.83 304.974 273.919 303.029 276.918 300.938C280.077 298.721 277.064 293.47 273.864 295.708C270.877 297.812 267.784 299.759 264.597 301.544C263.951 301.972 263.493 302.631 263.317 303.385C263.142 304.14 263.261 304.933 263.652 305.602C264.043 306.271 264.675 306.766 265.419 306.984C266.162 307.201 266.961 307.126 267.651 306.774V306.774Z" fill="white"/>
<path id="Path 11" opacity="0.206" d="M316.497 224.877C314.958 236.112 311.654 247.034 306.707 257.238C305.013 260.731 310.221 263.786 311.937 260.292C317.189 249.641 320.72 238.225 322.396 226.469C322.94 222.662 317.104 221.03 316.581 224.879L316.497 224.877Z" fill="white"/>
<path id="Path 12" opacity="0.206" d="M316.497 224.877C314.958 236.112 311.654 247.034 306.707 257.238C305.013 260.731 310.221 263.786 311.937 260.292C317.189 249.641 320.72 238.225 322.396 226.469C322.94 222.662 317.104 221.03 316.581 224.879L316.497 224.877Z" fill="white"/>
<path id="Path 13" opacity="0.206" d="M270.581 118.484C269.117 117.605 267.611 116.748 266.104 115.932C265.762 115.731 265.384 115.6 264.991 115.546C264.598 115.492 264.199 115.515 263.815 115.615C263.431 115.715 263.071 115.89 262.755 116.129C262.439 116.368 262.173 116.667 261.973 117.01C261.772 117.352 261.641 117.73 261.586 118.122C261.532 118.515 261.556 118.915 261.656 119.298C261.756 119.682 261.93 120.042 262.17 120.358C262.409 120.675 262.708 120.94 263.05 121.141C264.556 121.978 266.062 122.835 267.55 123.714C267.896 123.918 268.279 124.051 268.677 124.107C269.074 124.162 269.479 124.139 269.868 124.038C270.256 123.937 270.621 123.76 270.941 123.518C271.262 123.275 271.531 122.972 271.734 122.626C272.133 121.924 272.243 121.094 272.04 120.313C271.836 119.532 271.336 118.86 270.646 118.442L270.581 118.484Z" fill="white"/>
<path id="Path 14" opacity="0.206" d="M270.581 118.484C269.117 117.605 267.611 116.748 266.104 115.932C265.762 115.731 265.384 115.6 264.991 115.546C264.598 115.492 264.199 115.515 263.815 115.615C263.431 115.715 263.071 115.89 262.755 116.129C262.439 116.368 262.173 116.667 261.973 117.01C261.772 117.352 261.641 117.73 261.586 118.122C261.532 118.515 261.556 118.915 261.656 119.298C261.756 119.682 261.93 120.042 262.17 120.358C262.409 120.675 262.708 120.94 263.05 121.141C264.556 121.978 266.062 122.835 267.55 123.714C267.896 123.918 268.279 124.051 268.677 124.107C269.074 124.162 269.479 124.139 269.868 124.038C270.256 123.937 270.621 123.76 270.941 123.518C271.262 123.275 271.531 122.972 271.734 122.626C272.133 121.924 272.243 121.094 272.04 120.313C271.836 119.532 271.336 118.86 270.646 118.442L270.581 118.484Z" fill="white"/>
<path id="Path 15" opacity="0.206" d="M328.713 211.656C328.758 220.51 327.747 229.337 325.701 237.951C324.843 241.737 330.68 243.351 331.537 239.562C333.704 230.419 334.785 221.052 334.758 211.656C334.695 210.898 334.349 210.191 333.789 209.676C333.229 209.161 332.496 208.875 331.735 208.875C330.975 208.875 330.242 209.161 329.682 209.676C329.122 210.191 328.776 210.898 328.713 211.656V211.656Z" fill="white"/>
<path id="Path 16" opacity="0.206" d="M328.713 211.656C328.758 220.51 327.747 229.337 325.701 237.951C324.843 241.737 330.68 243.351 331.537 239.562C333.704 230.419 334.785 221.052 334.758 211.656C334.695 210.898 334.349 210.191 333.789 209.676C333.229 209.161 332.496 208.875 331.735 208.875C330.975 208.875 330.242 209.161 329.682 209.676C329.122 210.191 328.776 210.898 328.713 211.656V211.656Z" fill="white"/>
<path id="Path 17" opacity="0.206" d="M281.625 111.978C278.724 110.011 275.719 108.17 272.609 106.455C269.22 104.572 266.145 109.781 269.555 111.685C272.965 113.589 275.642 115.241 278.592 117.208C281.542 119.175 284.868 114.154 281.625 111.978Z" fill="white"/>
<path id="Path 18" opacity="0.206" d="M281.625 111.978C278.724 110.011 275.719 108.17 272.609 106.455C269.22 104.572 266.145 109.781 269.555 111.685C272.965 113.589 275.642 115.241 278.592 117.208C281.542 119.175 284.868 114.154 281.625 111.978Z" fill="white"/>
<path id="Path 19" opacity="0.206" d="M327.395 194.189C327.667 195.989 327.918 197.789 328.085 199.607C328.111 200.403 328.439 201.159 329.002 201.723C329.566 202.286 330.322 202.614 331.118 202.64C331.916 202.629 332.679 202.306 333.242 201.74C333.805 201.174 334.124 200.41 334.131 199.612C333.901 197.248 333.587 194.926 333.211 192.583C332.991 191.819 332.481 191.172 331.789 190.78C331.097 190.389 330.279 190.285 329.511 190.491C328.751 190.725 328.111 191.242 327.721 191.935C327.332 192.628 327.224 193.444 327.419 194.215L327.395 194.189Z" fill="white"/>
<path id="Path 20" opacity="0.206" d="M327.395 194.189C327.667 195.989 327.918 197.789 328.085 199.607C328.111 200.403 328.439 201.159 329.002 201.723C329.566 202.286 330.322 202.614 331.118 202.64C331.916 202.629 332.679 202.306 333.242 201.74C333.805 201.174 334.124 200.41 334.131 199.612C333.901 197.248 333.587 194.926 333.211 192.583C332.991 191.819 332.481 191.172 331.789 190.78C331.097 190.389 330.279 190.285 329.511 190.491C328.751 190.725 328.111 191.242 327.721 191.935C327.332 192.628 327.224 193.444 327.419 194.215L327.395 194.189Z" fill="white"/>
<path id="Path 21" opacity="0.206" d="M275.643 315.35C293.331 304.747 308.08 289.882 318.543 272.111C318.948 271.42 319.062 270.597 318.86 269.822C318.658 269.047 318.156 268.384 317.465 267.979C316.775 267.575 315.951 267.461 315.177 267.663C314.402 267.865 313.739 268.366 313.334 269.057C303.395 285.929 289.384 300.04 272.584 310.1C271.893 310.505 271.392 311.168 271.19 311.943C270.988 312.717 271.102 313.541 271.506 314.231C271.911 314.922 272.574 315.424 273.349 315.626C274.124 315.828 274.947 315.714 275.638 315.309L275.643 315.35Z" fill="white"/>
<path id="Path 22" opacity="0.206" d="M275.643 315.35C293.331 304.747 308.08 289.882 318.543 272.111C318.948 271.42 319.062 270.597 318.86 269.822C318.658 269.047 318.156 268.384 317.465 267.979C316.775 267.575 315.951 267.461 315.177 267.663C314.402 267.865 313.739 268.366 313.334 269.057C303.395 285.929 289.384 300.04 272.584 310.1C271.893 310.505 271.392 311.168 271.19 311.943C270.988 312.717 271.102 313.541 271.506 314.231C271.911 314.922 272.574 315.424 273.349 315.626C274.124 315.828 274.947 315.714 275.638 315.309L275.643 315.35Z" fill="white"/>
<path id="Path 23" opacity="0.206" d="M245.375 95.516C225.069 90.1197 203.703 90.136 183.405 95.5631C163.107 100.99 144.584 111.639 129.681 126.449C114.777 141.26 104.012 159.715 98.458 179.979C92.9036 200.242 92.7533 221.607 98.022 241.947C98.963 245.733 104.779 244.039 103.858 240.357C98.8715 221.05 99.0259 200.773 104.306 181.544C109.586 162.314 119.807 144.802 133.954 130.748C148.1 116.694 165.679 106.588 184.943 101.434C204.207 96.2809 224.484 96.2598 243.758 101.373C247.544 102.335 249.158 96.499 245.369 95.537L245.375 95.516Z" fill="white"/>
<path id="Path 24" opacity="0.206" d="M245.375 95.516C225.069 90.1197 203.703 90.136 183.405 95.5631C163.107 100.99 144.584 111.639 129.681 126.449C114.777 141.26 104.012 159.715 98.458 179.979C92.9036 200.242 92.7533 221.607 98.022 241.947C98.963 245.733 104.779 244.039 103.858 240.357C98.8715 221.05 99.0259 200.773 104.306 181.544C109.586 162.314 119.807 144.802 133.954 130.748C148.1 116.694 165.679 106.588 184.943 101.434C204.207 96.2809 224.484 96.2598 243.758 101.373C247.544 102.335 249.158 96.499 245.369 95.537L245.375 95.516Z" fill="white"/>
<path id="Path 25" opacity="0.206" d="M284.05 323.634C299.547 313.848 312.914 301.043 323.356 285.98C325.594 282.78 320.344 279.704 318.147 282.947C308.262 297.161 295.63 309.252 280.998 318.507C277.714 320.599 280.747 325.807 284.052 323.716L284.05 323.634Z" fill="white"/>
<path id="Path 26" opacity="0.206" d="M284.05 323.634C299.547 313.848 312.914 301.043 323.356 285.98C325.594 282.78 320.344 279.704 318.147 282.947C308.262 297.161 295.63 309.252 280.998 318.507C277.714 320.599 280.747 325.807 284.052 323.716L284.05 323.634Z" fill="white"/>
<path id="Path 27" opacity="0.206" d="M310.052 121.078C301.472 112.158 291.743 104.419 281.121 98.067C280.431 97.7145 279.632 97.6396 278.889 97.8574C278.145 98.0753 277.513 98.5695 277.122 99.2387C276.732 99.9078 276.612 100.701 276.787 101.456C276.963 102.21 277.421 102.869 278.067 103.297C288.251 109.357 297.573 116.759 305.784 125.304C308.462 128.128 312.75 123.84 309.968 121.12L310.052 121.078Z" fill="white"/>
<path id="Path 28" opacity="0.206" d="M310.052 121.078C301.472 112.158 291.743 104.419 281.121 98.067C280.431 97.7145 279.632 97.6396 278.889 97.8574C278.145 98.0753 277.513 98.5695 277.122 99.2387C276.732 99.9078 276.612 100.701 276.787 101.456C276.963 102.21 277.421 102.869 278.067 103.297C288.251 109.357 297.573 116.759 305.784 125.304C308.462 128.128 312.75 123.84 309.968 121.12L310.052 121.078Z" fill="white"/>
<path id="Path 29" opacity="0.206" d="M344.382 233.474C346.567 219.565 346.651 205.408 344.633 191.474C344.068 187.646 338.253 189.274 338.797 193.085C340.656 205.952 340.578 219.024 338.567 231.868C337.981 235.671 343.796 237.303 344.382 233.474Z" fill="white"/>
<path id="Path 30" opacity="0.206" d="M344.382 233.474C346.567 219.565 346.651 205.408 344.633 191.474C344.068 187.646 338.253 189.274 338.797 193.085C340.656 205.952 340.578 219.024 338.567 231.868C337.981 235.671 343.796 237.303 344.382 233.474Z" fill="white"/>
<path id="Path 31" opacity="0.206" d="M256.481 86.918C233.33 79.1511 208.476 77.9693 184.692 83.5045C160.908 89.0396 139.13 101.074 121.787 118.265C104.444 135.456 92.2185 157.127 86.4743 180.862C80.7301 204.596 81.6931 229.459 89.256 252.678C90.448 256.378 96.285 254.77 95.092 251.067C87.7897 228.878 86.8147 205.094 92.2766 182.381C97.7385 159.669 109.421 138.929 126.014 122.486C142.606 106.044 163.452 94.5501 186.213 89.2947C208.974 84.0394 232.748 85.2304 254.87 92.734C258.572 93.947 260.162 88.134 256.481 86.918Z" fill="white"/>
<path id="Path 32" opacity="0.206" d="M256.481 86.918C233.33 79.1511 208.476 77.9693 184.692 83.5045C160.908 89.0396 139.13 101.074 121.787 118.265C104.444 135.456 92.2185 157.127 86.4743 180.862C80.7301 204.596 81.6931 229.459 89.256 252.678C90.448 256.378 96.285 254.77 95.092 251.067C87.7897 228.878 86.8147 205.094 92.2766 182.381C97.7385 159.669 109.421 138.929 126.014 122.486C142.606 106.044 163.452 94.5501 186.213 89.2947C208.974 84.0394 232.748 85.2304 254.87 92.734C258.572 93.947 260.162 88.134 256.481 86.918Z" fill="white"/>
<path id="Path 33" opacity="0.206" d="M296.622 328.927C311.452 318.341 324.214 305.125 334.276 289.934C336.368 286.692 331.201 283.658 329.046 286.88C319.548 301.228 307.494 313.707 293.484 323.697C290.367 325.956 293.384 331.186 296.538 328.927H296.622Z" fill="white"/>
<path id="Path 34" opacity="0.206" d="M296.622 328.927C311.452 318.341 324.214 305.125 334.276 289.934C336.368 286.692 331.201 283.658 329.046 286.88C319.548 301.228 307.494 313.707 293.484 323.697C290.367 325.956 293.384 331.186 296.538 328.927H296.622Z" fill="white"/>
<path id="Path 35" opacity="0.206" d="M267.003 79.136C241.241 68.9285 213.064 66.4457 185.914 71.9909C158.763 77.536 133.816 90.8691 114.12 110.361C94.424 129.853 80.8316 154.66 75.0036 181.75C69.1757 208.841 71.3647 237.043 81.303 262.91C82.433 265.922 87.303 264.604 86.156 261.571C76.4611 236.566 74.281 209.274 79.8836 183.046C85.4861 156.819 98.6272 132.8 117.693 113.938C136.758 95.077 160.918 82.1951 187.203 76.8751C213.489 71.555 240.757 74.0286 265.656 83.992C268.689 85.163 269.986 80.31 266.995 79.139L267.003 79.136Z" fill="white"/>
<path id="Path 36" opacity="0.206" d="M267.003 79.136C241.241 68.9285 213.064 66.4457 185.914 71.9909C158.763 77.536 133.816 90.8691 114.12 110.361C94.424 129.853 80.8316 154.66 75.0036 181.75C69.1757 208.841 71.3647 237.043 81.303 262.91C82.433 265.922 87.303 264.604 86.156 261.571C76.4611 236.566 74.281 209.274 79.8836 183.046C85.4861 156.819 98.6272 132.8 117.693 113.938C136.758 95.077 160.918 82.1951 187.203 76.8751C213.489 71.555 240.757 74.0286 265.656 83.992C268.689 85.163 269.986 80.31 266.995 79.139L267.003 79.136Z" fill="white"/>
<path id="Path 37" opacity="0.206" d="M347.394 245.586C345.892 251.366 344.048 257.052 341.872 262.614C340.449 266.233 346.307 267.823 347.708 264.225C349.884 258.663 351.728 252.977 353.231 247.197C354.193 243.431 348.356 241.821 347.394 245.586Z" fill="white"/>
<path id="Path 38" opacity="0.206" d="M347.394 245.586C345.892 251.366 344.048 257.052 341.872 262.614C340.449 266.233 346.307 267.823 347.708 264.225C349.884 258.663 351.728 252.977 353.231 247.197C354.193 243.431 348.356 241.821 347.394 245.586Z" fill="white"/>
<path id="Path 39" opacity="0.206" d="M356.954 225.505C358.153 212.176 357.576 198.748 355.239 185.571C354.549 181.743 348.733 183.479 349.403 187.182C351.607 199.832 352.114 212.721 350.909 225.505C350.573 229.377 356.619 229.354 356.954 225.505Z" fill="white"/>
<path id="Path 40" opacity="0.206" d="M356.954 225.505C358.153 212.176 357.576 198.748 355.239 185.571C354.549 181.743 348.733 183.479 349.403 187.182C351.607 199.832 352.114 212.721 350.909 225.505C350.573 229.377 356.619 229.354 356.954 225.505Z" fill="white"/>
<path id="Path 41" opacity="0.206" d="M296.268 101.707C304.175 107.656 311.451 114.4 317.982 121.834C320.555 124.763 324.822 120.474 322.166 117.65C315.239 109.851 307.528 102.785 299.155 96.564C296.038 94.221 293.026 99.472 296.101 101.773L296.268 101.707Z" fill="white"/>
<path id="Path 42" opacity="0.206" d="M296.268 101.707C304.175 107.656 311.451 114.4 317.982 121.834C320.555 124.763 324.822 120.474 322.166 117.65C315.239 109.851 307.528 102.785 299.155 96.564C296.038 94.221 293.026 99.472 296.101 101.773L296.268 101.707Z" fill="white"/>
<path id="Path 43" opacity="0.206" d="M354.946 260.254C346.728 283.619 332.918 304.619 314.719 321.42C311.853 324.056 316.141 328.32 318.903 325.604C337.858 308.07 352.223 286.156 360.741 261.781C362.017 258.099 356.202 256.509 354.926 260.17L354.946 260.254Z" fill="white"/>
<path id="Path 44" opacity="0.206" d="M354.946 260.254C346.728 283.619 332.918 304.619 314.719 321.42C311.853 324.056 316.141 328.32 318.903 325.604C337.858 308.07 352.223 286.156 360.741 261.781C362.017 258.099 356.202 256.509 354.926 260.17L354.946 260.254Z" fill="white"/>
<path id="Path 45" opacity="0.206" d="M323.839 102.523L321.329 100.076C320.749 99.6822 320.05 99.5029 319.353 99.5689C318.655 99.6349 318.002 99.9422 317.507 100.438C317.011 100.933 316.704 101.586 316.638 102.284C316.572 102.981 316.751 103.68 317.145 104.26C317.982 105.076 318.818 105.871 319.655 106.707C320.235 107.101 320.934 107.28 321.631 107.214C322.329 107.148 322.982 106.841 323.477 106.345C323.973 105.85 324.28 105.197 324.346 104.499C324.412 103.802 324.233 103.103 323.839 102.523V102.523Z" fill="white"/>
<path id="Path 46" opacity="0.206" d="M323.839 102.523L321.329 100.076C320.749 99.6822 320.05 99.5029 319.353 99.5689C318.655 99.6349 318.002 99.9422 317.507 100.438C317.011 100.933 316.704 101.586 316.638 102.284C316.572 102.981 316.751 103.68 317.145 104.26C317.982 105.076 318.818 105.871 319.655 106.707C320.235 107.101 320.934 107.28 321.631 107.214C322.329 107.148 322.982 106.841 323.477 106.345C323.973 105.85 324.28 105.197 324.346 104.499C324.412 103.802 324.233 103.103 323.839 102.523V102.523Z" fill="white"/>
<path id="Path 47" opacity="0.206" d="M277.964 71.354C256.346 61.5811 232.764 56.9319 209.054 57.7687C185.345 58.6055 162.149 64.9058 141.274 76.1784C120.399 87.4511 102.409 103.392 88.7053 122.758C75.0019 142.125 65.9555 164.394 62.271 187.83C61.771 190.989 66.622 192.348 67.145 189.169C77.96 121.099 135.361 67.589 204.435 63.069C228.761 61.4588 253.114 65.766 275.412 75.622C278.362 76.94 280.912 72.589 277.964 71.271V71.354Z" fill="white"/>
<path id="Path 48" opacity="0.206" d="M277.964 71.354C256.346 61.5811 232.764 56.9319 209.054 57.7687C185.345 58.6055 162.149 64.9058 141.274 76.1784C120.399 87.4511 102.409 103.392 88.7053 122.758C75.0019 142.125 65.9555 164.394 62.271 187.83C61.771 190.989 66.622 192.348 67.145 189.169C77.96 121.099 135.361 67.589 204.435 63.069C228.761 61.4588 253.114 65.766 275.412 75.622C278.362 76.94 280.912 72.589 277.964 71.271V71.354Z" fill="white"/>
<path id="Path 49" opacity="0.206" d="M361.347 189.148C361.556 190.591 361.723 191.848 361.891 193.332C361.913 194.127 362.241 194.884 362.805 195.444C363.37 196.005 364.128 196.327 364.924 196.344C366.388 196.344 368.145 195.005 367.936 193.332C367.727 191.659 367.455 189.504 367.141 187.621C366.926 186.854 366.416 186.203 365.723 185.811C365.03 185.419 364.209 185.318 363.441 185.529C362.678 185.758 362.034 186.274 361.643 186.968C361.253 187.663 361.148 188.481 361.349 189.252L361.347 189.148Z" fill="white"/>
<path id="Path 50" opacity="0.206" d="M361.347 189.148C361.556 190.591 361.723 191.848 361.891 193.332C361.913 194.127 362.241 194.884 362.805 195.444C363.37 196.005 364.128 196.327 364.924 196.344C366.388 196.344 368.145 195.005 367.936 193.332C367.727 191.659 367.455 189.504 367.141 187.621C366.926 186.854 366.416 186.203 365.723 185.811C365.03 185.419 364.209 185.318 363.441 185.529C362.678 185.758 362.034 186.274 361.643 186.968C361.253 187.663 361.148 188.481 361.349 189.252L361.347 189.148Z" fill="white"/>
<path id="Path 51" opacity="0.206" d="M78.128 270.794C72.1155 256.77 68.2576 241.917 66.685 226.739C66.285 222.911 60.242 222.89 60.639 226.739C62.3248 242.971 66.4576 258.853 72.897 273.848C74.446 277.425 79.655 274.35 78.128 270.794Z" fill="white"/>
<path id="Path 52" opacity="0.206" d="M78.128 270.794C72.1155 256.77 68.2576 241.917 66.685 226.739C66.285 222.911 60.242 222.89 60.639 226.739C62.3248 242.971 66.4576 258.853 72.897 273.848C74.446 277.425 79.655 274.35 78.128 270.794Z" fill="white"/>
<path id="Path 53" opacity="0.206" d="M341.432 318.844C350.829 307.6 358.759 295.207 365.032 281.964C366.685 278.471 361.476 275.395 359.823 278.931C353.792 291.692 346.173 303.641 337.147 314.493C334.679 317.463 338.925 321.773 341.435 318.677L341.432 318.844Z" fill="white"/>
<path id="Path 54" opacity="0.206" d="M341.432 318.844C350.829 307.6 358.759 295.207 365.032 281.964C366.685 278.471 361.476 275.395 359.823 278.931C353.792 291.692 346.173 303.641 337.147 314.493C334.679 317.463 338.925 321.773 341.435 318.677L341.432 318.844Z" fill="white"/>
<path id="Path 55" opacity="0.206" d="M371.514 181.052C371.66 181.889 371.849 182.726 371.995 183.562C372.209 184.333 372.72 184.988 373.416 185.382C374.112 185.776 374.937 185.878 375.708 185.664C376.479 185.45 377.134 184.939 377.528 184.243C377.922 183.547 378.024 182.722 377.81 181.951C377.664 181.114 377.496 180.278 377.329 179.441C377.114 178.674 376.604 178.023 375.911 177.631C375.218 177.239 374.397 177.138 373.629 177.349C372.866 177.578 372.221 178.094 371.831 178.788C371.441 179.483 371.335 180.302 371.537 181.073L371.514 181.052Z" fill="white"/>
<path id="Path 56" opacity="0.206" d="M371.514 181.052C371.66 181.889 371.849 182.726 371.995 183.562C372.209 184.333 372.72 184.988 373.416 185.382C374.112 185.776 374.937 185.878 375.708 185.664C376.479 185.45 377.134 184.939 377.528 184.243C377.922 183.547 378.024 182.722 377.81 181.951C377.664 181.114 377.496 180.278 377.329 179.441C377.114 178.674 376.604 178.023 375.911 177.631C375.218 177.239 374.397 177.138 373.629 177.349C372.866 177.578 372.221 178.094 371.831 178.788C371.441 179.483 371.335 180.302 371.537 181.073L371.514 181.052Z" fill="white"/>
<path id="Path 57" opacity="0.206" d="M289.845 63.823C255.895 46.5117 217.02 41.416 179.755 49.3925C142.49 57.369 109.107 77.9313 85.218 107.623C72.8648 122.99 63.2933 140.398 56.936 159.062C55.681 162.744 61.517 164.334 62.772 160.673C70.1122 138.932 82.0411 119.023 97.7499 102.296C113.459 85.5694 132.58 72.4156 153.818 63.7264C175.056 55.0372 197.914 51.0158 220.843 51.9348C243.771 52.8539 266.234 58.6918 286.708 69.053C290.18 70.789 293.235 65.56 289.762 63.823H289.845Z" fill="white"/>
<path id="Path 58" opacity="0.206" d="M289.845 63.823C255.895 46.5117 217.02 41.416 179.755 49.3925C142.49 57.369 109.107 77.9313 85.218 107.623C72.8648 122.99 63.2933 140.398 56.936 159.062C55.681 162.744 61.517 164.334 62.772 160.673C70.1122 138.932 82.0411 119.023 97.7499 102.296C113.459 85.5694 132.58 72.4156 153.818 63.7264C175.056 55.0372 197.914 51.0158 220.843 51.9348C243.771 52.8539 266.234 58.6918 286.708 69.053C290.18 70.789 293.235 65.56 289.762 63.823H289.845Z" fill="white"/>
<path id="Path 59" opacity="0.206" d="M50.954 240.44C53.6392 255.426 58.3103 269.988 64.844 283.74C66.517 287.254 71.726 284.2 70.074 280.686C63.8136 267.39 59.3452 253.322 56.786 238.85C56.1 235.022 50.286 236.633 50.954 240.44Z" fill="white"/>
<path id="Path 60" opacity="0.206" d="M50.954 240.44C53.6392 255.426 58.3103 269.988 64.844 283.74C66.517 287.254 71.726 284.2 70.074 280.686C63.8136 267.39 59.3452 253.322 56.786 238.85C56.1 235.022 50.286 236.633 50.954 240.44Z" fill="white"/>
<path id="Path 61" opacity="0.206" d="M41.771 252.574C45.1758 266.764 50.2674 280.495 56.937 293.474C58.715 296.926 63.924 293.874 62.146 290.42C55.71 277.898 50.7941 264.652 47.503 250.963C46.603 247.198 40.767 248.871 41.688 252.574H41.771Z" fill="white"/>
<path id="Path 62" opacity="0.206" d="M41.771 252.574C45.1758 266.764 50.2674 280.495 56.937 293.474C58.715 296.926 63.924 293.874 62.146 290.42C55.71 277.898 50.7941 264.652 47.503 250.963C46.603 247.198 40.767 248.871 41.688 252.574H41.771Z" fill="white"/>
<path id="Path 63" opacity="0.206" d="M305.389 59.368C269.196 37.9754 226.64 29.9721 185.148 36.755C149.282 42.7866 116.132 59.683 90.177 85.161C75.7222 99.4003 63.7768 115.979 54.845 134.198C53.151 137.671 58.338 140.746 60.075 137.252C70.4093 115.824 85.092 96.7817 103.188 81.3386C121.285 65.8955 142.399 54.3895 165.185 47.5532C187.972 40.7169 211.933 38.7 235.542 41.6309C259.151 44.5618 281.891 52.3763 302.314 64.577C302.656 64.7777 303.034 64.909 303.427 64.9635C303.82 65.018 304.219 64.9946 304.603 64.8946C304.987 64.7947 305.347 64.6201 305.664 64.3809C305.98 64.1417 306.246 63.8425 306.447 63.5005C306.647 63.1585 306.779 62.7803 306.833 62.3875C306.888 61.9947 306.864 61.595 306.764 61.2113C306.664 60.8276 306.49 60.4673 306.25 60.151C306.011 59.8347 305.712 59.5687 305.37 59.368H305.389Z" fill="white"/>
<path id="Path 64" opacity="0.206" d="M305.389 59.368C269.196 37.9754 226.64 29.9721 185.148 36.755C149.282 42.7866 116.132 59.683 90.177 85.161C75.7222 99.4003 63.7768 115.979 54.845 134.198C53.151 137.671 58.338 140.746 60.075 137.252C70.4093 115.824 85.092 96.7817 103.188 81.3386C121.285 65.8955 142.399 54.3895 165.185 47.5532C187.972 40.7169 211.933 38.7 235.542 41.6309C259.151 44.5618 281.891 52.3763 302.314 64.577C302.656 64.7777 303.034 64.909 303.427 64.9635C303.82 65.018 304.219 64.9946 304.603 64.8946C304.987 64.7947 305.347 64.6201 305.664 64.3809C305.98 64.1417 306.246 63.8425 306.447 63.5005C306.647 63.1585 306.779 62.7803 306.833 62.3875C306.888 61.9947 306.864 61.595 306.764 61.2113C306.664 60.8276 306.49 60.4673 306.25 60.151C306.011 59.8347 305.712 59.5687 305.37 59.368H305.389Z" fill="white"/>
<path id="Path 65" opacity="0.206" d="M32.964 264.078C36.9089 277.507 42.2815 290.474 48.99 302.757C50.852 306.188 56.061 303.134 54.199 299.724C47.7594 287.887 42.5973 275.399 38.8 262.47C38.5488 261.74 38.0289 261.134 37.3461 260.774C36.6633 260.414 35.869 260.328 35.1251 260.534C34.3812 260.739 33.7435 261.22 33.342 261.879C32.9404 262.538 32.8053 263.326 32.964 264.081V264.078Z" fill="white"/>
<path id="Path 66" opacity="0.206" d="M32.964 264.078C36.9089 277.507 42.2815 290.474 48.99 302.757C50.852 306.188 56.061 303.134 54.199 299.724C47.7594 287.887 42.5973 275.399 38.8 262.47C38.5488 261.74 38.0289 261.134 37.3461 260.774C36.6633 260.414 35.869 260.328 35.1251 260.534C34.3812 260.739 33.7435 261.22 33.342 261.879C32.9404 262.538 32.8053 263.326 32.964 264.081V264.078Z" fill="white"/>
<path id="Path 67" opacity="0.206" d="M295.076 40.939C254.336 21.7641 208.089 17.7604 164.66 29.6486C121.23 41.5367 83.4704 68.536 58.176 105.787C55.976 108.987 61.209 112.063 63.406 108.841C87.8649 72.9501 124.297 46.9336 166.183 35.4471C208.07 23.9605 252.676 27.7534 292.022 46.147C295.536 47.779 298.611 42.57 295.076 40.938V40.939Z" fill="white"/>
<path id="Path 68" opacity="0.206" d="M295.076 40.939C254.336 21.7641 208.089 17.7604 164.66 29.6486C121.23 41.5367 83.4704 68.536 58.176 105.787C55.976 108.987 61.209 112.063 63.406 108.841C87.8649 72.9501 124.297 46.9336 166.183 35.4471C208.07 23.9605 252.676 27.7534 292.022 46.147C295.536 47.779 298.611 42.57 295.076 40.938V40.939Z" fill="white"/>
<path id="Path 69" opacity="0.206" d="M24.492 275.354C28.4916 287.131 33.5322 298.528 39.554 309.41C41.437 312.82 46.645 309.766 44.763 306.356C38.9864 295.935 34.1487 285.021 30.307 273.743C29.052 270.082 23.216 271.651 24.492 275.354Z" fill="white"/>
<path id="Path 70" opacity="0.206" d="M24.492 275.354C28.4916 287.131 33.5322 298.528 39.554 309.41C41.437 312.82 46.645 309.766 44.763 306.356C38.9864 295.935 34.1487 285.021 30.307 273.743C29.052 270.082 23.216 271.651 24.492 275.354Z" fill="white"/>
<path id="Path 71" opacity="0.206" d="M273.111 20.192C245.882 11.9906 217.23 9.62354 189.025 13.2453C160.82 16.8671 133.695 26.3964 109.422 41.211C96.5703 49.2062 84.6436 58.6001 73.86 69.221C71.078 71.94 75.345 76.208 78.044 73.405C103.133 48.9707 134.3 31.6922 168.316 23.361C202.332 15.0299 237.956 15.9493 271.497 26.024C275.245 27.132 276.835 21.317 273.111 20.192Z" fill="white"/>
<path id="Path 72" opacity="0.206" d="M273.111 20.192C245.882 11.9906 217.23 9.62354 189.025 13.2453C160.82 16.8671 133.695 26.3964 109.422 41.211C96.5703 49.2062 84.6436 58.6001 73.86 69.221C71.078 71.94 75.345 76.208 78.044 73.405C103.133 48.9707 134.3 31.6922 168.316 23.361C202.332 15.0299 237.956 15.9493 271.497 26.024C275.245 27.132 276.835 21.317 273.111 20.192Z" fill="white"/>
<path id="Path 73" opacity="0.206" d="M108.69 35.332C139.775 16.8218 175.146 6.72837 211.318 6.046C215.188 6.046 215.209 -0.0619966 211.318 3.43693e-06C174.071 0.684288 137.646 11.0667 105.636 30.123C105.294 30.3235 104.995 30.5895 104.756 30.9056C104.516 31.2218 104.342 31.582 104.242 31.9656C104.142 32.3492 104.118 32.7488 104.172 33.1416C104.227 33.5343 104.358 33.9125 104.559 34.2545C104.759 34.5965 105.025 34.8957 105.341 35.135C105.657 35.3742 106.017 35.5489 106.401 35.6489C106.785 35.749 107.184 35.7725 107.577 35.7181C107.97 35.6637 108.348 35.5325 108.69 35.332Z" fill="white"/>
<path id="Path 74" opacity="0.206" d="M108.69 35.332C139.775 16.8218 175.146 6.72837 211.318 6.046C215.188 6.046 215.209 -0.0619966 211.318 3.43693e-06C174.071 0.684288 137.646 11.0667 105.636 30.123C105.294 30.3235 104.995 30.5895 104.756 30.9056C104.516 31.2218 104.342 31.582 104.242 31.9656C104.142 32.3492 104.118 32.7488 104.172 33.1416C104.227 33.5343 104.358 33.9125 104.559 34.2545C104.759 34.5965 105.025 34.8957 105.341 35.135C105.657 35.3742 106.017 35.5489 106.401 35.6489C106.785 35.749 107.184 35.7725 107.577 35.7181C107.97 35.6637 108.348 35.5325 108.69 35.332Z" fill="white"/>
<path id="Path 75" opacity="0.206" d="M16.23 286.229C19.7259 295.417 23.8134 304.369 28.467 313.029C30.329 316.46 35.538 313.429 33.697 309.996C29.2727 301.797 25.3806 293.321 22.045 284.622C20.664 281.023 14.828 282.529 16.23 286.229Z" fill="white"/>
<path id="Path 76" opacity="0.206" d="M16.23 286.229C19.7259 295.417 23.8134 304.369 28.467 313.029C30.329 316.46 35.538 313.429 33.697 309.996C29.2727 301.797 25.3806 293.321 22.045 284.622C20.664 281.023 14.828 282.529 16.23 286.229Z" fill="white"/>
<path id="Path 77" opacity="0.206" d="M8.135 296.9C10.666 302.9 13.386 308.824 16.377 314.618C18.155 318.07 23.364 315.018 21.586 311.564C18.825 306.23 16.273 300.812 13.972 295.289C12.487 291.733 6.63 293.302 8.136 296.9H8.135Z" fill="white"/>
<path id="Path 78" opacity="0.206" d="M8.135 296.9C10.666 302.9 13.386 308.824 16.377 314.618C18.155 318.07 23.364 315.018 21.586 311.564C18.825 306.23 16.273 300.812 13.972 295.289C12.487 291.733 6.63 293.302 8.136 296.9H8.135Z" fill="white"/>
<path id="Path 79" opacity="0.206" d="M0.456007 308.008C1.31401 309.933 2.21301 311.836 3.11301 313.74C3.51799 314.431 4.18079 314.932 4.9556 315.134C5.73041 315.336 6.55375 315.222 7.24451 314.818C7.93526 314.413 8.43685 313.75 8.63892 312.975C8.84099 312.2 8.72699 311.377 8.32201 310.686C7.42201 308.786 6.54401 306.879 5.68601 304.954C5.48327 304.607 5.21366 304.304 4.89283 304.062C4.572 303.821 4.20634 303.645 3.81708 303.546C3.42783 303.446 3.02273 303.426 2.62531 303.484C2.22789 303.543 1.84607 303.68 1.50201 303.887C0.806561 304.301 0.30232 304.972 0.0986457 305.756C-0.105029 306.539 0.00828326 307.371 0.414008 308.071L0.456007 308.008Z" fill="white"/>
<path id="Path 80" opacity="0.206" d="M0.456007 308.008C1.31401 309.933 2.21301 311.836 3.11301 313.74C3.51799 314.431 4.18079 314.932 4.9556 315.134C5.73041 315.336 6.55375 315.222 7.24451 314.818C7.93526 314.413 8.43685 313.75 8.63892 312.975C8.84099 312.2 8.72699 311.377 8.32201 310.686C7.42201 308.786 6.54401 306.879 5.68601 304.954C5.48327 304.607 5.21366 304.304 4.89283 304.062C4.572 303.821 4.20634 303.645 3.81708 303.546C3.42783 303.446 3.02273 303.426 2.62531 303.484C2.22789 303.543 1.84607 303.68 1.50201 303.887C0.806561 304.301 0.30232 304.972 0.0986457 305.756C-0.105029 306.539 0.00828326 307.371 0.414008 308.071L0.456007 308.008Z" fill="white"/>
</g>
</g>
<defs>
<clipPath id="clip0_417_2">
<rect width="377.92" height="329.481" fill="white"/>
</clipPath>
</defs>
</svg>
