<svg xmlns="http://www.w3.org/2000/svg" width="4.72" height="4.72"><g data-name="Group 109"><path data-name="Path 126" d="M4.72 2.36A2.36 2.36 0 1 1 2.36 0a2.36 2.36 0 0 1 2.36 2.36z" fill="#3d3d3b"/><path data-name="Path 127" d="M2.97.98H1.76a.26.26 0 0 0-.26.26v2.24a.26.26 0 0 0 .26.26h1.21a.26.26 0 0 0 .26-.26V1.23a.26.26 0 0 0-.26-.25zm-.78.17h.35v.08h-.35zm.17 2.41a.12.12 0 1 1 .1-.035.12.12 0 0 1-.1.035zm.69-.6a.16.16 0 0 1-.17.17h-1a.16.16 0 0 1-.17-.17V1.58a.17.17 0 0 1 .17-.17h1a.17.17 0 0 1 .17.17z" fill="#fff"/></g></svg>