<svg xmlns="http://www.w3.org/2000/svg" width="4.72" height="4.72"><g data-name="Group 108"><path data-name="Path 128" d="M4.72 2.36A2.35 2.35 0 1 1 4.032.688 2.36 2.36 0 0 1 4.72 2.36z" fill="#3d3d3b"/><g data-name="1m6DRJ.tif" fill="#fff"><path data-name="Path 134" d="M2.669 3.75h-.84a.17.17 0 0 1-.17-.19.86.86 0 0 0 0-.28.44.44 0 0 0-.37-.31 1.23 1.23 0 0 1 0-1.09.39.39 0 0 0 .36-.3.681.681 0 0 0 0-.28.17.17 0 0 1 0-.12.19.19 0 0 1 .14-.09h1.61a.55.55 0 0 1 .56.43.39.39 0 0 1 0 .15v1.55a.57.57 0 0 1-.58.58zm.15-2.37h-.66a.14.14 0 0 0-.15.16v.3a.13.13 0 0 0 .15.15h1.32a.14.14 0 0 0 .15-.15v-.3a.14.14 0 0 0-.16-.16zm.19 1.08a.12.12 0 1 0 .12.12.12.12 0 0 0-.12-.12zm.37.24a.12.12 0 1 0 0-.24.13.13 0 0 0-.12.12.12.12 0 0 0 .12.08zm-1-.12a.115.115 0 1 0-.11.12.11.11 0 0 0 .1-.16zm1 .47a.11.11 0 0 0 .12-.11.138.138 0 1 0-.12.07zm0 .36a.12.12 0 1 0-.12-.12.13.13 0 0 0 .12.08zm-.37-.36a.115.115 0 1 0-.12-.11.11.11 0 0 0 .12.07zm0 .36a.1.1 0 1 1 0-.04zm-.26-.83a.249.249 0 1 1 0-.04zm-.38.35a.12.12 0 1 0-.11.12.11.11 0 0 0 .11-.16zm.38 0a.12.12 0 1 0-.12.12.12.12 0 0 0 .12-.12zm-.38.35a.11.11 0 0 0-.11-.12.12.12 0 0 0-.12.12.11.11 0 0 0 .11.12.12.12 0 0 0 .12-.15zm.26.12a.106.106 0 1 1 0-.03zm.38-1.07h-.03zm.37 0h.07v-.1h-.14v.1zm-1.13 0h-.07zm.38 0h-.07v.1z"/><path data-name="Path 135" d="M.709 2.36a4.26 4.26 0 0 1 .07-.87.789.789 0 0 1 .06-.22.6.6 0 0 1 .21-.28.36.36 0 0 1 .23-.06.92.92 0 0 1-.12.72.2.2 0 0 0-.16.12.72.72 0 0 0-.07.25 2.161 2.161 0 0 0 0 .67.639.639 0 0 0 .06.18.19.19 0 0 0 .15.11.93.93 0 0 1 .14.69c0 .05 0 .05-.06.05a.27.27 0 0 1-.21-.07.67.67 0 0 1-.24-.37 3.466 3.466 0 0 1-.08-.55 2.008 2.008 0 0 0 .02-.37z"/><path data-name="Path 136" d="M1.229 3.04c.11 0 .17 0 .22.13a.72.72 0 0 1 0 .48.18.18 0 0 1-.12.12 1 1 0 0 0-.13-.7z"/><path data-name="Path 137" d="M1.229 1.68a1 1 0 0 0 .12-.73.18.18 0 0 1 .14.1.6.6 0 0 1-.08.58c-.05.12-.11.06-.18.05z"/></g></g></svg>