<svg xmlns="http://www.w3.org/2000/svg" xmlns:xlink="http://www.w3.org/1999/xlink" width="63.65" height="9.922"><defs><linearGradient id="a" x1=".746" y1=".996" x2=".457" y2=".394" gradientUnits="objectBoundingBox"><stop offset="0" stop-color="#ad5617"/><stop offset=".39" stop-color="#ce720e"/><stop offset=".77" stop-color="#e88807"/><stop offset="1" stop-color="#f19005"/></linearGradient><linearGradient id="b" x1=".297" y1="1.029" x2=".634" y2=".156" xlink:href="#a"/></defs><g data-name="Group 114"><g data-name="Group 113"><g data-name="Group 112"><path data-name="Path 243" d="M194.45 85.2h1.43l.89 4.45a3.84 3.84 0 0 1-.9.12 3.36 3.36 0 0 1-1-2c-.2-1.24-.42-2.57-.42-2.57z" transform="translate(-154.019 -81.123)" fill="url(#a)"/><path data-name="Path 244" d="M35.731 7.937v-3.86h4.33v.67h-3.49v2.52h10.94l-.62.67zm1.46-1.68v-.57h2.69v.57z" fill="#3d3d3b"/><path data-name="Path 245" d="m51.711 7.937-.72-1h-2.29l.39-.55h1.49l-1.08-1.45-2.2 3h-1l2.78-3.7a.64.64 0 0 1 .17-.16.48.48 0 0 1 .24-.06.43.43 0 0 1 .24.06.52.52 0 0 1 .17.16l2.79 3.7z" fill="#3d3d3b"/><path data-name="Path 246" d="M53.251 7.937v-.67h3.63a.85.85 0 0 0 .52-.14.43.43 0 0 0 .19-.37.4.4 0 0 0-.19-.37.85.85 0 0 0-.52-.13h-2.22a2.331 2.331 0 0 1-.62-.08 1.58 1.58 0 0 1-.47-.23 1.09 1.09 0 0 1-.29-.35.92.92 0 0 1-.1-.44.929.929 0 0 1 .38-.78 1.46 1.46 0 0 1 .47-.22 2.12 2.12 0 0 1 .64-.08h3.48v.67h-3.48a.65.65 0 0 0-.45.13.4.4 0 0 0-.16.34.41.41 0 0 0 .16.35.74.74 0 0 0 .44.12h2.22a1.85 1.85 0 0 1 1.12.28 1.088 1.088 0 0 1 .29 1.29.88.88 0 0 1-.28.36 1.38 1.38 0 0 1-.47.24 2.589 2.589 0 0 1-.66.08z" fill="#3d3d3b"/><path data-name="Path 247" d="M60.661 7.937v-3.19h-1.83v-.67h4.52v.67h-1.84v3.19z" fill="#3d3d3b"/><path data-name="Path 248" d="M55.491.107a8.27 8.27 0 0 0-6.63 3 6.23 6.23 0 0 0-2.84-.23s1.27-3.53 9.47-2.77z" fill="#3d3d3b"/><path data-name="Path 249" d="M200 84.21a9 9 0 0 1 2.76.22l-2.19 3.62s-1.94 2.91-4.34 2c0 0 1.87-.18 2.7-2.82a19.54 19.54 0 0 1 1.07-3.02z" transform="translate(-154.019 -81.123)" fill="url(#b)"/><path data-name="Path 250" d="M45.301 9.877h-.24v-.28a.36.36 0 0 1 .08-.25.33.33 0 0 1 .14-.09.48.48 0 0 1 .1-.31.33.33 0 0 1 .28-.13.34.34 0 0 1 .32.06.55.55 0 0 1 .1.31.6.6 0 0 1-.08.29.37.37 0 0 1-.6 0v.11zm.36-.41a.12.12 0 0 0 .1-.06.38.38 0 0 0 0-.34.12.12 0 0 0-.1-.06.11.11 0 0 0-.1.06.38.38 0 0 0 0 .34.11.11 0 0 0 .1.03z" fill="#3d3d3b"/><path data-name="Path 251" d="M46.361 9.567a.1.1 0 0 1-.11-.11.11.11 0 0 1 0-.08.13.13 0 0 1 .08 0 .1.1 0 0 1 .11.11.13.13 0 0 1 0 .08.11.11 0 0 1-.08 0z" fill="#3d3d3b"/><path data-name="Path 252" d="M46.921 9.877h-.24v-.28a.32.32 0 0 1 .09-.25.31.31 0 0 1 .13-.09.49.49 0 0 1 .08-.38.33.33 0 0 1 .28-.13.32.32 0 0 1 .27.13.49.49 0 0 1 .11.31.52.52 0 0 1-.09.29.365.365 0 0 1-.59 0v.11zm.36-.41a.13.13 0 0 0 .11-.06.5.5 0 0 0 0-.34.13.13 0 0 0-.11-.06.12.12 0 0 0-.1.06.38.38 0 0 0 0 .34.12.12 0 0 0 .1.03z" fill="#3d3d3b"/><path data-name="Path 253" d="M47.981 9.567a.11.11 0 0 1-.08 0 .13.13 0 0 1 0-.08.1.1 0 0 1 .11-.11.13.13 0 0 1 .08 0 .11.11 0 0 1 0 .08.1.1 0 0 1-.11.11z" fill="#3d3d3b"/><path data-name="Path 254" d="M48.981 9.557h-.67v-.23h.43a.309.309 0 0 0 0-.1.37.37 0 0 0-.31-.31l.07-.22a.6.6 0 0 1 .49.63zm-.47-.94a.1.1 0 1 1 .08 0 .11.11 0 0 1-.08 0z" fill="#3d3d3b"/><path data-name="Path 255" d="M49.311 9.567a.11.11 0 0 1-.08 0 .13.13 0 0 1 0-.08.1.1 0 0 1 .11-.11.12.12 0 0 1 .11.11.1.1 0 0 1 0 .08.09.09 0 0 1-.14 0z" fill="#3d3d3b"/><path data-name="Path 256" d="M50.051 9.877a.4.4 0 0 1-.3-.1.38.38 0 0 1-.12-.3v-.4h.24v.38c0 .13.06.19.18.19s.17-.06.17-.19v-.58h.24v.49h.12v-.53h.25v.53h.15v-.61h.24v.84h-.74a.3.3 0 0 1-.11.17.39.39 0 0 1-.32.11zm.5-1.18a.11.11 0 0 1-.08 0 .1.1 0 0 1 0-.09.09.09 0 0 1 0-.08.1.1 0 0 1 .16 0 .09.09 0 0 1 0 .08.1.1 0 0 1 0 .09.11.11 0 0 1-.08-.05zm.13-.24a.14.14 0 0 1-.09 0 .12.12 0 0 1 0-.09.11.11 0 0 1 0-.08.15.15 0 0 1 .09 0 .12.12 0 0 1 .08 0 .09.09 0 0 1 0 .08.1.1 0 0 1 0 .09.11.11 0 0 1-.08-.05zm.14.24a.16.16 0 0 1-.09 0 .12.12 0 0 1 0-.09.11.11 0 0 1 0-.08.18.18 0 0 1 .09 0 .12.12 0 0 1 .08 0 .09.09 0 0 1 0 .08.1.1 0 0 1 0 .09.11.11 0 0 1-.08-.05z" fill="#3d3d3b"/><path data-name="Path 257" d="M52.071 9.557h-.34v-1.13h.25v.9h.1z" fill="#3d3d3b"/><path data-name="Path 258" d="M52.121 9.877a.12.12 0 0 1-.08 0 .09.09 0 0 1 0-.07.089.089 0 1 1 .16 0 .09.09 0 0 1 0 .07.12.12 0 0 1-.08 0zm.16-.32h-.23v-.23h.21v-.61h.24v.5a.539.539 0 0 1 0 .2.24.24 0 0 1-.22.14zm.08.32a.1.1 0 0 1-.08 0 .09.09 0 0 1 0-.07.1.1 0 0 1 0-.08.12.12 0 0 1 .15.15.1.1 0 0 1-.07 0z" fill="#3d3d3b"/><path data-name="Path 259" d="M53.421 9.557h-.75v-.23h.43a.309.309 0 0 0 0-.1.38.38 0 0 0-.31-.31l.06-.22a.6.6 0 0 1 .5.63h.08z" fill="#3d3d3b"/><path data-name="Path 260" d="M53.511 9.877a.11.11 0 0 1-.08 0 .15.15 0 0 1 0-.09.12.12 0 0 1 0-.08.09.09 0 0 1 .08 0 .1.1 0 0 1 .09 0 .11.11 0 0 1 0 .08.14.14 0 0 1 0 .09.12.12 0 0 1-.09 0zm.48-.32h-.59v-.23h.17v-.57h.24v.57h.17zm-.22.32a.16.16 0 0 1-.09 0 .14.14 0 0 1 0-.09.11.11 0 0 1 0-.08.12.12 0 0 1 .09 0 .14.14 0 0 1 .12.12.069.069 0 1 1-.12.05z" fill="#3d3d3b"/><path data-name="Path 261" d="M54.441 9.637a.32.32 0 0 1-.26-.11h-.2v-.23s.05 0 .05-.13a.49.49 0 0 1 .1-.32.34.34 0 0 1 .28-.13.33.33 0 0 1 .28.13.48.48 0 0 1 .1.31.51.51 0 0 1-.08.29.35.35 0 0 1-.27.19zm0-.22a.11.11 0 0 0 .1-.06.38.38 0 0 0 0-.34.11.11 0 0 0-.1-.06.12.12 0 0 0-.1.06.38.38 0 0 0 0 .34.12.12 0 0 0 .1.06z" fill="#3d3d3b"/><path data-name="Path 262" d="M56.741 9.557h-.95a.37.37 0 0 1-.42-.41v-.27h.24v.32a.2.2 0 0 0 0 .14.28.28 0 0 0 .15 0h.22a.36.36 0 0 1 0-.18.51.51 0 0 1 0-.28.33.33 0 0 1 .29-.15h.34v.62h.11zm-.52-.92a.1.1 0 1 1 .08 0 .11.11 0 0 1-.08 0zm.17.69v-.4h-.09c-.09 0-.14.07-.14.2a.21.21 0 0 0 0 .15h.05z" fill="#3d3d3b"/><path data-name="Path 263" d="M57.281 9.557h-.57v-.23h.16v-.57h.24v.57h.17zm-.45-.91a.11.11 0 1 1 .11-.11.179.179 0 0 1-.11.11zm.26 0a.089.089 0 1 1 0-.16.11.11 0 1 1 0 .22z" fill="#3d3d3b"/><path data-name="Path 264" d="M58.171 9.557h-.91v-.23h.72v-.14c0-.08-.06-.12-.17-.12h-.48v-.19l.64-.47v.28l-.26.19h.13a.38.38 0 0 1 .29.11.37.37 0 0 1 .09.25z" fill="#3d3d3b"/><path data-name="Path 265" d="M58.291 8.427h.24v1.13h-.24z" fill="#3d3d3b"/><path data-name="Path 266" d="M60.291 9.557h-.77c-.3 0-.45-.14-.45-.41v-.27h.24v.33a.15.15 0 0 0 .11.16h.47v-.61h.24v.61h.12zm-.8-.91a.089.089 0 1 1 0-.16.11.11 0 1 1 0 .22zm.25 0a.11.11 0 0 1-.08 0 .1.1 0 0 1 0-.16.11.11 0 0 1 .08 0 .13.13 0 0 1 .08 0 .12.12 0 0 1 0 .16.13.13 0 0 1-.08 0z" fill="#3d3d3b"/><path data-name="Path 267" d="M61.431 9.557h-1.16v-.23h.19v-.45h.24v.49h.12v-.53h.25v.53h.12v-.61h.24z" fill="#3d3d3b"/><path data-name="Path 268" d="M61.891 9.557h-.34v-1.13h.24v.9h.1z" fill="#3d3d3b"/></g><path data-name="Path 269" d="M62.811 9.557h-.94v-.23h.11a.581.581 0 0 1 0-.18.48.48 0 0 1 .09-.29.32.32 0 0 1 .29-.15h.33v.62h.13zm-.55-.92a.11.11 0 0 1-.08 0 .1.1 0 0 1 0-.16.11.11 0 0 1 .08 0 .13.13 0 0 1 .08 0 .12.12 0 0 1 0 .16.13.13 0 0 1-.08 0zm.18.69v-.4h-.08c-.1 0-.15.07-.15.2a.27.27 0 0 0 0 .15.1.1 0 0 0 .07 0z" fill="#3d3d3b"/><path data-name="Path 270" d="M62.861 9.877a.12.12 0 0 1-.08 0 .09.09 0 0 1 0-.07.089.089 0 1 1 .16 0 .09.09 0 0 1 0 .07.12.12 0 0 1-.08 0zm.16-.32h-.23v-.23h.19v-.61h.24v.5a.54.54 0 0 1 0 .2.24.24 0 0 1-.24.14zm.08.32a.12.12 0 0 1-.08 0 .09.09 0 0 1 0-.07.1.1 0 0 1 0-.08.09.09 0 0 1 .08 0 .126.126 0 0 1 .07.15.1.1 0 0 1-.07 0z" fill="#3d3d3b"/><path data-name="Path 271" d="M63.411 8.427h.24v1.13h-.24z" fill="#3d3d3b"/><path data-name="Path 272" d="M50.981 2.877h-.43l-.08.2h-.18l.41-.9h.14l.41.9h-.18zm-.05-.12-.16-.4-.17.4z" fill="#3d3d3b"/><path data-name="Path 273" d="m52.051 2.987-.13.08a.38.38 0 0 1-.16 0 .41.41 0 0 1-.25-.08.3.3 0 0 1-.12-.25.32.32 0 0 1 .12-.26.41.41 0 0 1 .25-.07.38.38 0 0 1 .16 0 .57.57 0 0 1 .13.08l-.12.09a.21.21 0 0 0-.17-.07.2.2 0 1 0 0 .4.21.21 0 0 0 .22-.03z" fill="#3d3d3b"/><path data-name="Path 274" d="M52.291 2.247h.16v.2h.12v.1h-.12v.33h.12v.12h-.08a.2.2 0 0 1-.14 0 .14.14 0 0 1-.06-.12v-.38h-.08v-.1h.08z" fill="#3d3d3b"/><path data-name="Path 275" d="M52.841 2.187h.14v.13h-.16zm0 .26.14.13v.64h-.16z" fill="#3d3d3b"/><path data-name="Path 276" d="M53.211 2.447h.17l.19.45.19-.45h.22l-.29.64h-.13z" fill="#3d3d3b"/><path data-name="Path 277" d="M54.261 2.817a.14.14 0 0 0 .06.12.25.25 0 0 0 .13 0 .24.24 0 0 0 .18-.07l.12.08a.46.46 0 0 1-.29.11h-.19a.2.2 0 0 1-.08-.1.25.25 0 0 1 0-.16.38.38 0 0 1 0-.16.27.27 0 0 1 .08-.1.22.22 0 0 1 .11 0 .2.2 0 0 1 .11 0 .35.35 0 0 1 .23.07.23.23 0 0 1 .1.2v.11zm.34-.11a.13.13 0 0 0-.05-.11.2.2 0 0 0-.24 0 .13.13 0 0 0-.05.11z" fill="#3d3d3b"/><path data-name="Path 278" d="M55.561 2.187h.16l.33.59.31-.59h.17v.9h-.17v-.56l-.23.43h-.15l-.23-.43v.56h-.17z" fill="#3d3d3b"/><path data-name="Path 279" d="M56.981 2.817a.17.17 0 0 0 .05.12.29.29 0 0 0 .14 0 .26.26 0 0 0 .18-.07l.11.08a.44.44 0 0 1-.29.11h-.24a.27.27 0 0 1-.08-.1.35.35 0 0 1 0-.16.38.38 0 0 1 0-.16.26.26 0 0 1 .07-.1.27.27 0 0 1 .11 0 .25.25 0 0 1 .12 0 .35.35 0 0 1 .23.07.23.23 0 0 1 .1.2v.11zm.34-.11a.13.13 0 0 0-.05-.11.2.2 0 0 0-.24 0 .13.13 0 0 0-.05.11z" fill="#3d3d3b"/><path data-name="Path 280" d="M58.281 3.017a.29.29 0 0 1-.33 0 .24.24 0 0 1-.09-.06.1.1 0 0 1 0-.08.57.57 0 0 1 0-.16.651.651 0 0 1 0-.17.12.12 0 0 1 0-.08.29.29 0 0 1 .22-.08h.2v-.32h.17v.9h-.17zm-.15-.45h-.09a.12.12 0 0 0-.05 0 .14.14 0 0 0 0 .06v.25a.19.19 0 0 0 0 .07h.23a.14.14 0 0 0 0-.06v-.14a.14.14 0 0 0 0-.07.15.15 0 0 0-.09-.11z" fill="#3d3d3b"/><path data-name="Path 281" d="M58.761 2.187h.16v.13h-.16zm0 .26h.16v.64h-.16z" fill="#3d3d3b"/></g><path data-name="Path 282" d="M59.661 3.027h-.2a.28.28 0 0 1-.2-.06.17.17 0 0 1-.08-.14.15.15 0 0 1 .07-.13.27.27 0 0 1 .19-.06h.22v-.07c0-.05-.05-.08-.16-.08h-.1l-.13-.08a.37.37 0 0 1 .27-.09.55.55 0 0 1 .24 0 .19.19 0 0 1 .1.17v.44h-.17zm0-.21h-.19c-.09 0-.14 0-.14.07a.05.05 0 0 0 0 .06.16.16 0 0 0 .11 0h.15a.13.13 0 0 0 0-.1z" fill="#3d3d3b"/><path data-name="Path 283" d="M60.661 2.187h.18v.77h.55v.13h-.73z" fill="#3d3d3b"/><path data-name="Path 284" d="M61.671 2.187h.17v.77h.56v.13h-.73z" fill="#3d3d3b"/><path data-name="Path 285" d="M63.441 2.877a.3.3 0 0 1-.14.19.41.41 0 0 1-.25.07.45.45 0 0 1-.22 0 .57.57 0 0 1-.14-.11.909.909 0 0 1 0-.21.78.78 0 0 1 0-.21.19.19 0 0 1 0-.09.4.4 0 0 1 .14-.11.45.45 0 0 1 .22 0 .4.4 0 0 1 .26.08.28.28 0 0 1 .13.19h-.18a.23.23 0 0 0-.07-.1.32.32 0 0 0-.14 0h-.14a.12.12 0 0 0 0 .08 1.631 1.631 0 0 0 0 .36.12.12 0 0 0 0 .08h.18a.22.22 0 0 0 .21-.12z" fill="#3d3d3b"/><text data-name="Powered By :" transform="translate(0 7.007)" fill="#1d1d1b" font-size="5.16" font-family="Lato-LightItalic, Lato" font-weight="300" font-style="italic"><tspan x="0" y="0">Powered By :</tspan></text></g></svg>