<svg xmlns="http://www.w3.org/2000/svg" width="13.644" height="10.534"><defs><clipPath id="a"><path data-name="Rectangle 97" fill="none" d="M0 0h13.644v10.534H0z"/></clipPath></defs><g data-name="Group 69" clip-path="url(#a)" fill="#161615"><path data-name="Path 385" d="M6.837 0h6.093a.673.673 0 0 1 .634.337.823.823 0 0 1 .078.432v7.818a.656.656 0 0 1-.5.727.978.978 0 0 1-.247.016H8.228c-.159 0-.161 0-.1.152.052.128.058.307.165.371s.263.017.4.018h.523a.331.331 0 1 1-.005.661H4.438a.331.331 0 1 1 0-.661h.837a.119.119 0 0 0 .134-.091 5.97 5.97 0 0 1 .138-.366c.032-.076.006-.092-.064-.086h-.091c-1.547 0-3.095-.009-4.642.005A.7.7 0 0 1 0 8.587C.01 5.968.005 3.348.005.729A.655.655 0 0 1 .731 0h6.106zm-.022 8.72h6.04c.172 0 .172 0 .172-.169V.785c0-.168 0-.169-.169-.169Q6.824.616.791.614C.663.613.623.638.623.775q.007 3.883 0 7.766c0 .179 0 .179.174.179h6.018"/><path data-name="Path 386" d="M3.664 1.218A2.361 2.361 0 1 1 1.31 3.646a2.354 2.354 0 0 1 2.354-2.428m1.053 2.47h1.032c.1 0 .124-.028.119-.126a2.435 2.435 0 0 0-.063-.451 2.291 2.291 0 0 0-2.078-1.733c-.167-.01-.167-.01-.167.153v2.012c0 .111.022.15.142.147.339-.009.679 0 1.019 0"/><path data-name="Path 387" d="M11.301 5.233V2.474c0-.1.027-.134.13-.131q.372.011.745 0c.11 0 .138.032.138.139v5.493c0 .105-.033.131-.134.129a12.77 12.77 0 0 0-.758 0c-.1 0-.121-.029-.121-.124V5.234"/><path data-name="Path 388" d="M10.644 6.383v1.594c0 .094-.021.129-.122.126a13.213 13.213 0 0 0-.771 0c-.094 0-.116-.03-.115-.119V4.77c0-.077.018-.107.1-.105q.4.008.8 0c.087 0 .11.027.11.111v1.607"/><path data-name="Path 389" d="M6.305 6.812V5.648c0-.091.024-.119.116-.117q.392.009.784 0c.089 0 .111.03.111.112v2.354c0 .083-.028.1-.106.1-.266 0-.532-.005-.8 0-.088 0-.108-.028-.107-.111V6.809"/><path data-name="Path 390" d="M5.648 7.15v.848c0 .079-.022.106-.1.1q-.4-.006-.809 0c-.076 0-.1-.027-.1-.1V6.289c0-.077.02-.107.1-.106q.4.007.8 0c.088 0 .11.029.109.113v.848"/><path data-name="Path 391" d="M7.976 7.195v-.757c0-.085.014-.123.112-.121.261.007.522 0 .784 0 .074 0 .107.011.107.1q-.006.8 0 1.593c0 .076-.025.095-.1.094q-.4-.005-.81 0c-.077 0-.095-.027-.094-.1v-.81"/><path data-name="Path 392" d="M2.98 7.313V6.62c0-.073.021-.1.1-.1q.405.005.811 0c.076 0 .095.025.094.1v1.386c0 .073-.019.1-.095.1q-.405-.006-.811 0c-.076 0-.1-.024-.1-.1v-.693"/><path data-name="Path 393" d="M2.308 7.542v.47c0 .069-.021.09-.09.089h-.823c-.069 0-.089-.022-.088-.09v-.954c0-.06.017-.085.081-.085h.836c.064 0 .083.024.082.085v.483"/></g></svg>