<svg xmlns="http://www.w3.org/2000/svg" width="4.72" height="4.72"><g data-name="Group 111"><path data-name="Path 125" d="M4.72 2.36A2.35 2.35 0 1 1 4.032.688 2.36 2.36 0 0 1 4.72 2.36z" fill="#3d3d3b"/><g fill="#fff"><path data-name="Path 138" d="M2.269.89h.46a1.59 1.59 0 0 1 .83.48 1.63 1.63 0 0 1 .39.8 1.1 1.1 0 0 1 0 .18v.35a1.729 1.729 0 0 1-.14.44h-.09v-.05a1.51 1.51 0 0 0 .13-.46h-.45a2.059 2.059 0 0 1 0 .26.31.31 0 0 0-.1-.05v-.18h-.67v.57h.09v.12h-.12v.53a.71.71 0 0 0 .18-.08.31.31 0 0 1 .09-.07l.06.22a1.56 1.56 0 0 1-.68 0 1.51 1.51 0 0 1-.75-.34 1.56 1.56 0 0 1-.59-1.16 1.46 1.46 0 0 1 .14-.75 1.59 1.59 0 0 1 1.18-.92zm.53 1.56h.33a2.39 2.39 0 0 0-.11-.65h-.56v.61zm-.87 0h.33v-.61h-.56a2.32 2.32 0 0 0-.11.64zm0 .15h-.3c-.05 0-.05 0-.05.06a2.132 2.132 0 0 0 .1.57 4.93 4.93 0 0 1 .55 0v-.6zm1.63-.15.27-.09a.831.831 0 0 0 0-.22 1.459 1.459 0 0 0-.22-.53l-.32.06a2.541 2.541 0 0 1 .11.67zm-2.4 0h.23v-.18a3 3 0 0 1 .1-.5.785.785 0 0 1-.31-.06 1.4 1.4 0 0 0-.25.74h.23zm0 .15h-.24v.14a1.619 1.619 0 0 0 .23.56.575.575 0 0 0 .31-.06 2.59 2.59 0 0 1-.1-.62zm1.27-1.55v.56a4.71 4.71 0 0 0 .53 0 1.22 1.22 0 0 0-.33-.45.62.62 0 0 0-.19-.11zm-.15.29.05-.21a.67.67 0 0 0-.17.08 1.151 1.151 0 0 0-.34.45h.49zm-.54 2.07a1.379 1.379 0 0 0 .23.36.64.64 0 0 0 .28.18l.03-.52h-.28zm-.47-1.88.29.05a1.339 1.339 0 0 1 .12-.24l.15-.21a1.36 1.36 0 0 0-.55.4zm2.17 0a1.36 1.36 0 0 0-.61-.4v.06a1.31 1.31 0 0 1 .21.36 1.6 1.6 0 0 0 .41-.02zm-2.17 2a1.47 1.47 0 0 0 .57.38l-.09-.11a1.461 1.461 0 0 1-.16-.3z"/><path data-name="Path 139" d="m3.569 4.13-.31-.38h-.06l-.16.29-.33-1.17V2.8l.44.24.69.37-.34.1.31.38v.09l-.11.09z"/></g></g></svg>